<svg width="727" height="924" viewBox="0 0 727 924" fill="none" xmlns="http://www.w3.org/2000/svg">
<g clip-path="url(#clip0_1_2)">
<rect width="727" height="924" fill="white"/>
<rect x="19" y="18" width="679" height="55" fill="#D9D9D9"/>
<rect x="19" y="840" width="679" height="55" fill="#D9D9D9"/>
<rect x="148" y="94" width="314" height="60" fill="#D9D9D9"/>
<rect x="480" y="94" width="117" height="60" fill="#D9D9D9"/>
<rect x="29" y="175" width="679" height="643" fill="#D9D9D9"/>
<rect x="50" y="221" width="201" height="168" fill="#B3B2B2"/>
<line x1="56.2534" y1="229.441" x2="245.253" y2="381.441" stroke="#767676" stroke-width="4"/>
<line x1="53.7466" y1="381.441" x2="242.747" y2="229.441" stroke="#767676" stroke-width="4"/>
<rect x="268" y="221" width="201" height="168" fill="#B3B2B2"/>
<line x1="274.253" y1="229.441" x2="463.253" y2="381.441" stroke="#767676" stroke-width="4"/>
<line x1="271.747" y1="381.441" x2="460.747" y2="229.441" stroke="#767676" stroke-width="4"/>
<rect x="486" y="221" width="201" height="168" fill="#B3B2B2"/>
<line x1="492.253" y1="229.441" x2="681.253" y2="381.441" stroke="#767676" stroke-width="4"/>
<line x1="489.747" y1="381.441" x2="678.747" y2="229.441" stroke="#767676" stroke-width="4"/>
<rect x="50" y="410" width="201" height="168" fill="#B3B2B2"/>
<line x1="56.2534" y1="418.441" x2="245.253" y2="570.441" stroke="#767676" stroke-width="4"/>
<line x1="53.7466" y1="570.441" x2="242.747" y2="418.441" stroke="#767676" stroke-width="4"/>
<rect x="268" y="410" width="201" height="168" fill="#B3B2B2"/>
<line x1="274.253" y1="418.441" x2="463.253" y2="570.441" stroke="#767676" stroke-width="4"/>
<line x1="271.747" y1="570.441" x2="460.747" y2="418.441" stroke="#767676" stroke-width="4"/>
<rect x="486" y="410" width="201" height="168" fill="#B3B2B2"/>
<line x1="492.253" y1="418.441" x2="681.253" y2="570.441" stroke="#767676" stroke-width="4"/>
<line x1="489.747" y1="570.441" x2="678.747" y2="418.441" stroke="#767676" stroke-width="4"/>
<rect x="50" y="593" width="201" height="168" fill="#B3B2B2"/>
<line x1="56.2534" y1="601.441" x2="245.253" y2="753.441" stroke="#767676" stroke-width="4"/>
<line x1="53.7466" y1="753.441" x2="242.747" y2="601.441" stroke="#767676" stroke-width="4"/>
<rect x="268" y="593" width="201" height="168" fill="#B3B2B2"/>
<line x1="274.253" y1="601.441" x2="463.253" y2="753.441" stroke="#767676" stroke-width="4"/>
<line x1="271.747" y1="753.441" x2="460.747" y2="601.441" stroke="#767676" stroke-width="4"/>
<rect x="486" y="593" width="201" height="168" fill="#B3B2B2"/>
<line x1="492.253" y1="601.441" x2="681.253" y2="753.441" stroke="#767676" stroke-width="4"/>
<line x1="489.747" y1="753.441" x2="678.747" y2="601.441" stroke="#767676" stroke-width="4"/>
<path d="M346 782H381V808H346V782Z" fill="#B3B2B2"/>
<path d="M398 782H433V808H398V782Z" fill="#B3B2B2"/>
<line x1="409.937" y1="783.829" x2="424.937" y2="795.829" stroke="#767676" stroke-width="3"/>
<line x1="408.228" y1="804.714" x2="423.228" y2="795.714" stroke="#767676" stroke-width="3"/>
<path d="M450 782H485V808H450V782Z" fill="#B3B2B2"/>
<line x1="461.937" y1="783.829" x2="476.937" y2="795.829" stroke="#767676" stroke-width="3"/>
<line x1="460.228" y1="804.714" x2="475.228" y2="795.714" stroke="#767676" stroke-width="3"/>
<line x1="478.5" y1="806" x2="478.5" y2="784" stroke="#767676" stroke-width="3"/>
<path d="M329 782H294V808H329V782Z" fill="#B3B2B2"/>
<line y1="-1.5" x2="19.2094" y2="-1.5" transform="matrix(-0.780869 0.624695 0.624695 0.780869 318 785)" stroke="#767676" stroke-width="3"/>
<line y1="-1.5" x2="17.4929" y2="-1.5" transform="matrix(-0.857493 -0.514496 -0.514496 0.857493 318 806)" stroke="#767676" stroke-width="3"/>
<path d="M277 782H242V808H277V782Z" fill="#B3B2B2"/>
<line y1="-1.5" x2="19.2094" y2="-1.5" transform="matrix(-0.780869 0.624695 0.624695 0.780869 266 785)" stroke="#767676" stroke-width="3"/>
<line y1="-1.5" x2="17.4929" y2="-1.5" transform="matrix(-0.857493 -0.514496 -0.514496 0.857493 266 806)" stroke="#767676" stroke-width="3"/>
<line y1="-1.5" x2="22" y2="-1.5" transform="matrix(2.05795e-08 -1 -1 -2.05795e-08 247 806)" stroke="#767676" stroke-width="3"/>
<path d="M46.8295 53H44.6136L51.0227 35.5455H53.2045L59.6136 53H57.3977L52.1818 38.3068H52.0455L46.8295 53ZM47.6477 46.1818H56.5795V48.0568H47.6477V46.1818ZM62.3324 53V35.5455H68.2301C69.5938 35.5455 70.7131 35.7784 71.5881 36.2443C72.4631 36.7045 73.1108 37.3381 73.5312 38.1449C73.9517 38.9517 74.1619 39.8693 74.1619 40.8977C74.1619 41.9261 73.9517 42.8381 73.5312 43.6335C73.1108 44.429 72.4659 45.054 71.5966 45.5085C70.7273 45.9574 69.6165 46.1818 68.2642 46.1818H63.4915V44.2727H68.196C69.1278 44.2727 69.8778 44.1364 70.446 43.8636C71.0199 43.5909 71.4347 43.2045 71.6903 42.7045C71.9517 42.1989 72.0824 41.5966 72.0824 40.8977C72.0824 40.1989 71.9517 39.5881 71.6903 39.0653C71.429 38.5426 71.0114 38.1392 70.4375 37.8551C69.8636 37.5653 69.1051 37.4205 68.1619 37.4205H64.446V53H62.3324ZM70.5483 45.1591L74.8438 53H72.3892L68.1619 45.1591H70.5483ZM77.6839 53V35.5455H79.7976V44.2045H80.0021L87.843 35.5455H90.6044L83.2749 43.4205L90.6044 53H88.0476L81.9794 44.8864L79.7976 47.3409V53H77.6839ZM95.4538 35.5455V53H93.3402V35.5455H95.4538ZM100.408 35.5455L105.589 50.2386H105.794L110.976 35.5455H113.192L106.783 53H104.601L98.1918 35.5455H100.408ZM129.817 44.2727C129.817 46.1136 129.485 47.7045 128.82 49.0455C128.156 50.3864 127.244 51.4205 126.085 52.1477C124.925 52.875 123.602 53.2386 122.113 53.2386C120.624 53.2386 119.3 52.875 118.141 52.1477C116.982 51.4205 116.07 50.3864 115.406 49.0455C114.741 47.7045 114.408 46.1136 114.408 44.2727C114.408 42.4318 114.741 40.8409 115.406 39.5C116.07 38.1591 116.982 37.125 118.141 36.3977C119.3 35.6705 120.624 35.3068 122.113 35.3068C123.602 35.3068 124.925 35.6705 126.085 36.3977C127.244 37.125 128.156 38.1591 128.82 39.5C129.485 40.8409 129.817 42.4318 129.817 44.2727ZM127.772 44.2727C127.772 42.7614 127.519 41.4858 127.013 40.446C126.513 39.4062 125.835 38.6193 124.977 38.0852C124.124 37.5511 123.17 37.2841 122.113 37.2841C121.056 37.2841 120.099 37.5511 119.241 38.0852C118.388 38.6193 117.71 39.4062 117.204 40.446C116.704 41.4858 116.454 42.7614 116.454 44.2727C116.454 45.7841 116.704 47.0597 117.204 48.0994C117.71 49.1392 118.388 49.9261 119.241 50.4602C120.099 50.9943 121.056 51.2614 122.113 51.2614C123.17 51.2614 124.124 50.9943 124.977 50.4602C125.835 49.9261 126.513 49.1392 127.013 48.0994C127.519 47.0597 127.772 45.7841 127.772 44.2727Z" fill="#767676"/>
<path d="M488.83 53H486.614L493.023 35.5455H495.205L501.614 53H499.398L494.182 38.3068H494.045L488.83 53ZM489.648 46.1818H498.58V48.0568H489.648V46.1818ZM504.06 53V39.9091H506.003V41.8864H506.139C506.378 41.2386 506.81 40.7131 507.435 40.3097C508.06 39.9062 508.764 39.7045 509.548 39.7045C509.696 39.7045 509.881 39.7074 510.102 39.7131C510.324 39.7187 510.491 39.7273 510.605 39.7386V41.7841C510.537 41.767 510.381 41.7415 510.136 41.7074C509.898 41.6676 509.645 41.6477 509.378 41.6477C508.741 41.6477 508.173 41.7812 507.673 42.0483C507.179 42.3097 506.787 42.6733 506.497 43.1392C506.213 43.5994 506.071 44.125 506.071 44.7159V53H504.06ZM519.503 39.9091V41.6136H512.719V39.9091H519.503ZM514.696 36.7727H516.707V49.25C516.707 49.8182 516.79 50.2443 516.955 50.5284C517.125 50.8068 517.341 50.9943 517.602 51.0909C517.869 51.1818 518.151 51.2273 518.446 51.2273C518.668 51.2273 518.849 51.2159 518.991 51.1932C519.134 51.1648 519.247 51.142 519.332 51.125L519.741 52.9318C519.605 52.983 519.415 53.0341 519.17 53.0852C518.926 53.142 518.616 53.1705 518.241 53.1705C517.673 53.1705 517.116 53.0483 516.571 52.804C516.031 52.5597 515.582 52.1875 515.224 51.6875C514.872 51.1875 514.696 50.5568 514.696 49.7955V36.7727ZM522.528 53V39.9091H524.54V53H522.528ZM523.551 37.7273C523.159 37.7273 522.821 37.5938 522.537 37.3267C522.259 37.0597 522.119 36.7386 522.119 36.3636C522.119 35.9886 522.259 35.6676 522.537 35.4006C522.821 35.1335 523.159 35 523.551 35C523.943 35 524.278 35.1335 524.557 35.4006C524.841 35.6676 524.983 35.9886 524.983 36.3636C524.983 36.7386 524.841 37.0597 524.557 37.3267C524.278 37.5938 523.943 37.7273 523.551 37.7273ZM534.053 39.9091V41.6136H526.996V39.9091H534.053ZM529.11 53V38.1023C529.11 37.3523 529.286 36.7273 529.638 36.2273C529.991 35.7273 530.448 35.3523 531.011 35.1023C531.573 34.8523 532.167 34.7273 532.792 34.7273C533.286 34.7273 533.69 34.767 534.002 34.8466C534.315 34.9261 534.548 35 534.701 35.0682L534.121 36.8068C534.019 36.7727 533.877 36.7301 533.695 36.679C533.519 36.6278 533.286 36.6023 532.996 36.6023C532.332 36.6023 531.852 36.7699 531.556 37.1051C531.266 37.4403 531.121 37.9318 531.121 38.5795V53H529.11ZM540.349 53.3068C539.52 53.3068 538.767 53.1506 538.091 52.8381C537.415 52.5199 536.878 52.0625 536.48 51.4659C536.082 50.8636 535.884 50.1364 535.884 49.2841C535.884 48.5341 536.031 47.9261 536.327 47.4602C536.622 46.9886 537.017 46.6193 537.511 46.3523C538.006 46.0852 538.551 45.8864 539.148 45.7557C539.75 45.6193 540.355 45.5114 540.963 45.4318C541.759 45.3295 542.403 45.2528 542.898 45.2017C543.398 45.1449 543.761 45.0511 543.989 44.9205C544.222 44.7898 544.338 44.5625 544.338 44.2386V44.1705C544.338 43.3295 544.108 42.6761 543.648 42.2102C543.193 41.7443 542.503 41.5114 541.577 41.5114C540.616 41.5114 539.864 41.7216 539.318 42.142C538.773 42.5625 538.389 43.0114 538.168 43.4886L536.259 42.8068C536.599 42.0114 537.054 41.392 537.622 40.9489C538.196 40.5 538.821 40.1875 539.497 40.0114C540.179 39.8295 540.849 39.7386 541.509 39.7386C541.929 39.7386 542.412 39.7898 542.957 39.892C543.509 39.9886 544.04 40.1903 544.551 40.4972C545.068 40.804 545.497 41.267 545.838 41.8864C546.179 42.5057 546.349 43.3352 546.349 44.375V53H544.338V51.2273H544.236C544.099 51.5114 543.872 51.8153 543.554 52.1392C543.236 52.4631 542.813 52.7386 542.284 52.9659C541.756 53.1932 541.111 53.3068 540.349 53.3068ZM540.656 51.5C541.452 51.5 542.122 51.3438 542.668 51.0312C543.219 50.7188 543.634 50.3153 543.912 49.821C544.196 49.3267 544.338 48.8068 544.338 48.2614V46.4205C544.253 46.5227 544.065 46.6165 543.776 46.7017C543.491 46.7812 543.162 46.8523 542.787 46.9148C542.418 46.9716 542.057 47.0227 541.705 47.0682C541.358 47.108 541.077 47.142 540.861 47.1705C540.338 47.2386 539.849 47.3494 539.395 47.5028C538.946 47.6506 538.582 47.875 538.304 48.1761C538.031 48.4716 537.895 48.875 537.895 49.3864C537.895 50.0852 538.153 50.6136 538.67 50.9716C539.193 51.3239 539.855 51.5 540.656 51.5ZM555.339 53.2727C554.112 53.2727 553.055 52.983 552.168 52.4034C551.282 51.8239 550.6 51.0256 550.123 50.0085C549.646 48.9915 549.407 47.8295 549.407 46.5227C549.407 45.1932 549.651 44.0199 550.14 43.0028C550.634 41.9801 551.322 41.1818 552.202 40.608C553.089 40.0284 554.123 39.7386 555.305 39.7386C556.225 39.7386 557.055 39.9091 557.793 40.25C558.532 40.5909 559.137 41.0682 559.609 41.6818C560.08 42.2955 560.373 43.0114 560.487 43.8295H558.475C558.322 43.233 557.981 42.7045 557.452 42.2443C556.93 41.7784 556.225 41.5455 555.339 41.5455C554.555 41.5455 553.867 41.75 553.276 42.1591C552.691 42.5625 552.234 43.1335 551.904 43.8722C551.58 44.6051 551.418 45.4659 551.418 46.4545C551.418 47.4659 551.577 48.3466 551.896 49.0966C552.219 49.8466 552.674 50.429 553.259 50.8438C553.85 51.2585 554.543 51.4659 555.339 51.4659C555.862 51.4659 556.336 51.375 556.762 51.1932C557.188 51.0114 557.549 50.75 557.844 50.4091C558.14 50.0682 558.35 49.6591 558.475 49.1818H560.487C560.373 49.9545 560.092 50.6506 559.643 51.2699C559.2 51.8835 558.612 52.3722 557.879 52.7358C557.151 53.0938 556.305 53.2727 555.339 53.2727ZM569.12 39.9091V41.6136H562.336V39.9091H569.12ZM564.313 36.7727H566.325V49.25C566.325 49.8182 566.407 50.2443 566.572 50.5284C566.742 50.8068 566.958 50.9943 567.219 51.0909C567.487 51.1818 567.768 51.2273 568.063 51.2273C568.285 51.2273 568.467 51.2159 568.609 51.1932C568.751 51.1648 568.864 51.142 568.95 51.125L569.359 52.9318C569.222 52.983 569.032 53.0341 568.788 53.0852C568.543 53.142 568.234 53.1705 567.859 53.1705C567.29 53.1705 566.734 53.0483 566.188 52.804C565.648 52.5597 565.2 52.1875 564.842 51.6875C564.489 51.1875 564.313 50.5568 564.313 49.7955V36.7727ZM581.184 42.8409L579.377 43.3523C579.263 43.0511 579.096 42.7585 578.874 42.4744C578.658 42.1847 578.363 41.946 577.988 41.7585C577.613 41.571 577.133 41.4773 576.548 41.4773C575.746 41.4773 575.079 41.6619 574.545 42.0312C574.016 42.3949 573.752 42.858 573.752 43.4205C573.752 43.9205 573.934 44.3153 574.298 44.6051C574.661 44.8949 575.229 45.1364 576.002 45.3295L577.945 45.8068C579.116 46.0909 579.988 46.5256 580.562 47.1108C581.136 47.6903 581.423 48.4375 581.423 49.3523C581.423 50.1023 581.207 50.7727 580.775 51.3636C580.349 51.9545 579.752 52.4205 578.985 52.7614C578.218 53.1023 577.326 53.2727 576.309 53.2727C574.974 53.2727 573.869 52.983 572.994 52.4034C572.119 51.8239 571.565 50.9773 571.332 49.8636L573.241 49.3864C573.423 50.0909 573.766 50.6193 574.272 50.9716C574.783 51.3239 575.451 51.5 576.275 51.5C577.212 51.5 577.957 51.3011 578.508 50.9034C579.065 50.5 579.343 50.017 579.343 49.4545C579.343 49 579.184 48.6193 578.866 48.3125C578.548 48 578.059 47.767 577.4 47.6136L575.218 47.1023C574.019 46.8182 573.138 46.3778 572.576 45.7812C572.019 45.179 571.741 44.4261 571.741 43.5227C571.741 42.7841 571.948 42.1307 572.363 41.5625C572.783 40.9943 573.354 40.5483 574.076 40.2244C574.803 39.9006 575.627 39.7386 576.548 39.7386C577.843 39.7386 578.86 40.0227 579.599 40.5909C580.343 41.1591 580.871 41.9091 581.184 42.8409Z" fill="#767676"/>
<path d="M245.659 117.909C245.557 117.045 245.142 116.375 244.415 115.898C243.688 115.42 242.795 115.182 241.739 115.182C240.966 115.182 240.29 115.307 239.71 115.557C239.136 115.807 238.688 116.151 238.364 116.588C238.045 117.026 237.886 117.523 237.886 118.08C237.886 118.545 237.997 118.946 238.219 119.281C238.446 119.611 238.736 119.886 239.088 120.108C239.44 120.324 239.81 120.503 240.196 120.645C240.582 120.781 240.938 120.892 241.261 120.977L243.034 121.455C243.489 121.574 243.994 121.739 244.551 121.949C245.114 122.159 245.651 122.446 246.162 122.81C246.679 123.168 247.105 123.628 247.44 124.19C247.776 124.753 247.943 125.443 247.943 126.261C247.943 127.205 247.696 128.057 247.202 128.818C246.713 129.58 245.997 130.185 245.054 130.634C244.116 131.082 242.977 131.307 241.636 131.307C240.386 131.307 239.304 131.105 238.389 130.702C237.48 130.298 236.764 129.736 236.241 129.014C235.724 128.293 235.432 127.455 235.364 126.5H237.545C237.602 127.159 237.824 127.705 238.21 128.136C238.602 128.562 239.097 128.881 239.693 129.091C240.295 129.295 240.943 129.398 241.636 129.398C242.443 129.398 243.168 129.267 243.81 129.006C244.452 128.739 244.96 128.369 245.335 127.898C245.71 127.42 245.898 126.864 245.898 126.227C245.898 125.648 245.736 125.176 245.412 124.812C245.088 124.449 244.662 124.153 244.134 123.926C243.605 123.699 243.034 123.5 242.42 123.33L240.273 122.716C238.909 122.324 237.83 121.764 237.034 121.037C236.239 120.31 235.841 119.358 235.841 118.182C235.841 117.205 236.105 116.352 236.634 115.625C237.168 114.892 237.884 114.324 238.781 113.92C239.685 113.511 240.693 113.307 241.807 113.307C242.932 113.307 243.932 113.509 244.807 113.912C245.682 114.31 246.375 114.855 246.886 115.548C247.403 116.241 247.676 117.028 247.705 117.909H245.659ZM256.634 131.273C255.373 131.273 254.285 130.994 253.37 130.438C252.461 129.875 251.759 129.091 251.265 128.085C250.776 127.074 250.532 125.898 250.532 124.557C250.532 123.216 250.776 122.034 251.265 121.011C251.759 119.983 252.447 119.182 253.327 118.608C254.214 118.028 255.248 117.739 256.43 117.739C257.112 117.739 257.785 117.852 258.45 118.08C259.114 118.307 259.719 118.676 260.265 119.188C260.81 119.693 261.245 120.364 261.569 121.199C261.893 122.034 262.055 123.062 262.055 124.284V125.136H251.964V123.398H260.009C260.009 122.659 259.862 122 259.566 121.42C259.276 120.841 258.862 120.384 258.322 120.048C257.788 119.713 257.157 119.545 256.43 119.545C255.629 119.545 254.935 119.744 254.35 120.142C253.771 120.534 253.325 121.045 253.012 121.676C252.7 122.307 252.543 122.983 252.543 123.705V124.864C252.543 125.852 252.714 126.69 253.055 127.378C253.401 128.06 253.881 128.58 254.495 128.938C255.109 129.29 255.822 129.466 256.634 129.466C257.163 129.466 257.64 129.392 258.066 129.244C258.498 129.091 258.87 128.864 259.183 128.562C259.495 128.256 259.737 127.875 259.907 127.42L261.85 127.966C261.646 128.625 261.302 129.205 260.819 129.705C260.336 130.199 259.739 130.585 259.029 130.864C258.319 131.136 257.521 131.273 256.634 131.273ZM268.967 131.307C268.137 131.307 267.384 131.151 266.708 130.838C266.032 130.52 265.495 130.062 265.097 129.466C264.7 128.864 264.501 128.136 264.501 127.284C264.501 126.534 264.648 125.926 264.944 125.46C265.239 124.989 265.634 124.619 266.129 124.352C266.623 124.085 267.168 123.886 267.765 123.756C268.367 123.619 268.972 123.511 269.58 123.432C270.376 123.33 271.021 123.253 271.515 123.202C272.015 123.145 272.379 123.051 272.606 122.92C272.839 122.79 272.955 122.562 272.955 122.239V122.17C272.955 121.33 272.725 120.676 272.265 120.21C271.81 119.744 271.12 119.511 270.194 119.511C269.234 119.511 268.481 119.722 267.935 120.142C267.39 120.562 267.006 121.011 266.785 121.489L264.876 120.807C265.217 120.011 265.671 119.392 266.239 118.949C266.813 118.5 267.438 118.187 268.114 118.011C268.796 117.83 269.467 117.739 270.126 117.739C270.546 117.739 271.029 117.79 271.575 117.892C272.126 117.989 272.657 118.19 273.168 118.497C273.685 118.804 274.114 119.267 274.455 119.886C274.796 120.506 274.967 121.335 274.967 122.375V131H272.955V129.227H272.853C272.717 129.511 272.489 129.815 272.171 130.139C271.853 130.463 271.43 130.739 270.901 130.966C270.373 131.193 269.728 131.307 268.967 131.307ZM269.273 129.5C270.069 129.5 270.739 129.344 271.285 129.031C271.836 128.719 272.251 128.315 272.529 127.821C272.813 127.327 272.955 126.807 272.955 126.261V124.42C272.87 124.523 272.683 124.616 272.393 124.702C272.109 124.781 271.779 124.852 271.404 124.915C271.035 124.972 270.674 125.023 270.322 125.068C269.975 125.108 269.694 125.142 269.478 125.17C268.955 125.239 268.467 125.349 268.012 125.503C267.563 125.651 267.2 125.875 266.921 126.176C266.648 126.472 266.512 126.875 266.512 127.386C266.512 128.085 266.771 128.614 267.288 128.972C267.81 129.324 268.472 129.5 269.273 129.5ZM278.638 131V117.909H280.581V119.886H280.717C280.956 119.239 281.388 118.713 282.013 118.31C282.638 117.906 283.342 117.705 284.126 117.705C284.274 117.705 284.459 117.707 284.68 117.713C284.902 117.719 285.07 117.727 285.183 117.739V119.784C285.115 119.767 284.959 119.741 284.714 119.707C284.476 119.668 284.223 119.648 283.956 119.648C283.32 119.648 282.751 119.781 282.251 120.048C281.757 120.31 281.365 120.673 281.075 121.139C280.791 121.599 280.649 122.125 280.649 122.716V131H278.638ZM292.487 131.273C291.26 131.273 290.203 130.983 289.317 130.403C288.43 129.824 287.749 129.026 287.271 128.009C286.794 126.991 286.555 125.83 286.555 124.523C286.555 123.193 286.8 122.02 287.288 121.003C287.783 119.98 288.47 119.182 289.351 118.608C290.237 118.028 291.271 117.739 292.453 117.739C293.374 117.739 294.203 117.909 294.942 118.25C295.68 118.591 296.286 119.068 296.757 119.682C297.229 120.295 297.521 121.011 297.635 121.83H295.624C295.47 121.233 295.129 120.705 294.601 120.244C294.078 119.778 293.374 119.545 292.487 119.545C291.703 119.545 291.016 119.75 290.425 120.159C289.839 120.562 289.382 121.134 289.053 121.872C288.729 122.605 288.567 123.466 288.567 124.455C288.567 125.466 288.726 126.347 289.044 127.097C289.368 127.847 289.822 128.429 290.408 128.844C290.999 129.259 291.692 129.466 292.487 129.466C293.01 129.466 293.484 129.375 293.911 129.193C294.337 129.011 294.697 128.75 294.993 128.409C295.288 128.068 295.499 127.659 295.624 127.182H297.635C297.521 127.955 297.24 128.651 296.791 129.27C296.348 129.884 295.76 130.372 295.027 130.736C294.3 131.094 293.453 131.273 292.487 131.273ZM302.587 123.125V131H300.575V113.545H302.587V119.955H302.757C303.064 119.278 303.524 118.741 304.138 118.344C304.757 117.94 305.581 117.739 306.609 117.739C307.501 117.739 308.283 117.918 308.953 118.276C309.624 118.628 310.143 119.17 310.513 119.903C310.888 120.631 311.075 121.557 311.075 122.682V131H309.064V122.818C309.064 121.778 308.794 120.974 308.254 120.406C307.72 119.832 306.979 119.545 306.03 119.545C305.371 119.545 304.78 119.685 304.257 119.963C303.74 120.241 303.331 120.648 303.03 121.182C302.734 121.716 302.587 122.364 302.587 123.125ZM321.778 131V113.545H327.88C329.096 113.545 330.099 113.756 330.888 114.176C331.678 114.591 332.266 115.151 332.653 115.855C333.039 116.554 333.232 117.33 333.232 118.182C333.232 118.932 333.099 119.551 332.832 120.04C332.57 120.528 332.224 120.915 331.792 121.199C331.366 121.483 330.903 121.693 330.403 121.83V122C330.937 122.034 331.474 122.222 332.013 122.562C332.553 122.903 333.005 123.392 333.369 124.028C333.732 124.665 333.914 125.443 333.914 126.364C333.914 127.239 333.715 128.026 333.317 128.724C332.92 129.423 332.292 129.977 331.434 130.386C330.576 130.795 329.46 131 328.085 131H321.778ZM323.891 129.125H328.085C329.465 129.125 330.445 128.858 331.025 128.324C331.61 127.784 331.903 127.131 331.903 126.364C331.903 125.773 331.752 125.227 331.451 124.727C331.15 124.222 330.721 123.818 330.164 123.517C329.607 123.21 328.948 123.057 328.187 123.057H323.891V129.125ZM323.891 121.216H327.812C328.448 121.216 329.022 121.091 329.533 120.841C330.05 120.591 330.46 120.239 330.761 119.784C331.067 119.33 331.221 118.795 331.221 118.182C331.221 117.415 330.954 116.764 330.42 116.23C329.886 115.69 329.039 115.42 327.88 115.42H323.891V121.216ZM342.433 131.273C341.251 131.273 340.214 130.991 339.322 130.429C338.435 129.866 337.742 129.08 337.242 128.068C336.748 127.057 336.501 125.875 336.501 124.523C336.501 123.159 336.748 121.969 337.242 120.952C337.742 119.935 338.435 119.145 339.322 118.582C340.214 118.02 341.251 117.739 342.433 117.739C343.614 117.739 344.648 118.02 345.535 118.582C346.427 119.145 347.12 119.935 347.614 120.952C348.114 121.969 348.364 123.159 348.364 124.523C348.364 125.875 348.114 127.057 347.614 128.068C347.12 129.08 346.427 129.866 345.535 130.429C344.648 130.991 343.614 131.273 342.433 131.273ZM342.433 129.466C343.33 129.466 344.069 129.236 344.648 128.776C345.228 128.315 345.657 127.71 345.935 126.96C346.214 126.21 346.353 125.398 346.353 124.523C346.353 123.648 346.214 122.832 345.935 122.077C345.657 121.321 345.228 120.71 344.648 120.244C344.069 119.778 343.33 119.545 342.433 119.545C341.535 119.545 340.796 119.778 340.217 120.244C339.637 120.71 339.208 121.321 338.93 122.077C338.651 122.832 338.512 123.648 338.512 124.523C338.512 125.398 338.651 126.21 338.93 126.96C339.208 127.71 339.637 128.315 340.217 128.776C340.796 129.236 341.535 129.466 342.433 129.466ZM352.396 117.909L355.532 123.261L358.668 117.909H360.987L356.759 124.455L360.987 131H358.668L355.532 125.92L352.396 131H350.077L354.237 124.455L350.077 117.909H352.396Z" fill="#767676"/>
<path d="M509.659 117.909C509.557 117.045 509.142 116.375 508.415 115.898C507.688 115.42 506.795 115.182 505.739 115.182C504.966 115.182 504.29 115.307 503.71 115.557C503.136 115.807 502.688 116.151 502.364 116.588C502.045 117.026 501.886 117.523 501.886 118.08C501.886 118.545 501.997 118.946 502.219 119.281C502.446 119.611 502.736 119.886 503.088 120.108C503.44 120.324 503.81 120.503 504.196 120.645C504.582 120.781 504.938 120.892 505.261 120.977L507.034 121.455C507.489 121.574 507.994 121.739 508.551 121.949C509.114 122.159 509.651 122.446 510.162 122.81C510.679 123.168 511.105 123.628 511.44 124.19C511.776 124.753 511.943 125.443 511.943 126.261C511.943 127.205 511.696 128.057 511.202 128.818C510.713 129.58 509.997 130.185 509.054 130.634C508.116 131.082 506.977 131.307 505.636 131.307C504.386 131.307 503.304 131.105 502.389 130.702C501.48 130.298 500.764 129.736 500.241 129.014C499.724 128.293 499.432 127.455 499.364 126.5H501.545C501.602 127.159 501.824 127.705 502.21 128.136C502.602 128.562 503.097 128.881 503.693 129.091C504.295 129.295 504.943 129.398 505.636 129.398C506.443 129.398 507.168 129.267 507.81 129.006C508.452 128.739 508.96 128.369 509.335 127.898C509.71 127.42 509.898 126.864 509.898 126.227C509.898 125.648 509.736 125.176 509.412 124.812C509.088 124.449 508.662 124.153 508.134 123.926C507.605 123.699 507.034 123.5 506.42 123.33L504.273 122.716C502.909 122.324 501.83 121.764 501.034 121.037C500.239 120.31 499.841 119.358 499.841 118.182C499.841 117.205 500.105 116.352 500.634 115.625C501.168 114.892 501.884 114.324 502.781 113.92C503.685 113.511 504.693 113.307 505.807 113.307C506.932 113.307 507.932 113.509 508.807 113.912C509.682 114.31 510.375 114.855 510.886 115.548C511.403 116.241 511.676 117.028 511.705 117.909H509.659ZM520.634 131.273C519.373 131.273 518.285 130.994 517.37 130.438C516.461 129.875 515.759 129.091 515.265 128.085C514.776 127.074 514.532 125.898 514.532 124.557C514.532 123.216 514.776 122.034 515.265 121.011C515.759 119.983 516.447 119.182 517.327 118.608C518.214 118.028 519.248 117.739 520.43 117.739C521.112 117.739 521.785 117.852 522.45 118.08C523.114 118.307 523.719 118.676 524.265 119.188C524.81 119.693 525.245 120.364 525.569 121.199C525.893 122.034 526.055 123.062 526.055 124.284V125.136H515.964V123.398H524.009C524.009 122.659 523.862 122 523.566 121.42C523.276 120.841 522.862 120.384 522.322 120.048C521.788 119.713 521.157 119.545 520.43 119.545C519.629 119.545 518.935 119.744 518.35 120.142C517.771 120.534 517.325 121.045 517.012 121.676C516.7 122.307 516.543 122.983 516.543 123.705V124.864C516.543 125.852 516.714 126.69 517.055 127.378C517.401 128.06 517.881 128.58 518.495 128.938C519.109 129.29 519.822 129.466 520.634 129.466C521.163 129.466 521.64 129.392 522.066 129.244C522.498 129.091 522.87 128.864 523.183 128.562C523.495 128.256 523.737 127.875 523.907 127.42L525.85 127.966C525.646 128.625 525.302 129.205 524.819 129.705C524.336 130.199 523.739 130.585 523.029 130.864C522.319 131.136 521.521 131.273 520.634 131.273ZM532.967 131.307C532.137 131.307 531.384 131.151 530.708 130.838C530.032 130.52 529.495 130.062 529.097 129.466C528.7 128.864 528.501 128.136 528.501 127.284C528.501 126.534 528.648 125.926 528.944 125.46C529.239 124.989 529.634 124.619 530.129 124.352C530.623 124.085 531.168 123.886 531.765 123.756C532.367 123.619 532.972 123.511 533.58 123.432C534.376 123.33 535.021 123.253 535.515 123.202C536.015 123.145 536.379 123.051 536.606 122.92C536.839 122.79 536.955 122.562 536.955 122.239V122.17C536.955 121.33 536.725 120.676 536.265 120.21C535.81 119.744 535.12 119.511 534.194 119.511C533.234 119.511 532.481 119.722 531.935 120.142C531.39 120.562 531.006 121.011 530.785 121.489L528.876 120.807C529.217 120.011 529.671 119.392 530.239 118.949C530.813 118.5 531.438 118.187 532.114 118.011C532.796 117.83 533.467 117.739 534.126 117.739C534.546 117.739 535.029 117.79 535.575 117.892C536.126 117.989 536.657 118.19 537.168 118.497C537.685 118.804 538.114 119.267 538.455 119.886C538.796 120.506 538.967 121.335 538.967 122.375V131H536.955V129.227H536.853C536.717 129.511 536.489 129.815 536.171 130.139C535.853 130.463 535.43 130.739 534.901 130.966C534.373 131.193 533.728 131.307 532.967 131.307ZM533.273 129.5C534.069 129.5 534.739 129.344 535.285 129.031C535.836 128.719 536.251 128.315 536.529 127.821C536.813 127.327 536.955 126.807 536.955 126.261V124.42C536.87 124.523 536.683 124.616 536.393 124.702C536.109 124.781 535.779 124.852 535.404 124.915C535.035 124.972 534.674 125.023 534.322 125.068C533.975 125.108 533.694 125.142 533.478 125.17C532.955 125.239 532.467 125.349 532.012 125.503C531.563 125.651 531.2 125.875 530.921 126.176C530.648 126.472 530.512 126.875 530.512 127.386C530.512 128.085 530.771 128.614 531.288 128.972C531.81 129.324 532.472 129.5 533.273 129.5ZM542.638 131V117.909H544.581V119.886H544.717C544.956 119.239 545.388 118.713 546.013 118.31C546.638 117.906 547.342 117.705 548.126 117.705C548.274 117.705 548.459 117.707 548.68 117.713C548.902 117.719 549.07 117.727 549.183 117.739V119.784C549.115 119.767 548.959 119.741 548.714 119.707C548.476 119.668 548.223 119.648 547.956 119.648C547.32 119.648 546.751 119.781 546.251 120.048C545.757 120.31 545.365 120.673 545.075 121.139C544.791 121.599 544.649 122.125 544.649 122.716V131H542.638ZM556.487 131.273C555.26 131.273 554.203 130.983 553.317 130.403C552.43 129.824 551.749 129.026 551.271 128.009C550.794 126.991 550.555 125.83 550.555 124.523C550.555 123.193 550.8 122.02 551.288 121.003C551.783 119.98 552.47 119.182 553.351 118.608C554.237 118.028 555.271 117.739 556.453 117.739C557.374 117.739 558.203 117.909 558.942 118.25C559.68 118.591 560.286 119.068 560.757 119.682C561.229 120.295 561.521 121.011 561.635 121.83H559.624C559.47 121.233 559.129 120.705 558.601 120.244C558.078 119.778 557.374 119.545 556.487 119.545C555.703 119.545 555.016 119.75 554.425 120.159C553.839 120.562 553.382 121.134 553.053 121.872C552.729 122.605 552.567 123.466 552.567 124.455C552.567 125.466 552.726 126.347 553.044 127.097C553.368 127.847 553.822 128.429 554.408 128.844C554.999 129.259 555.692 129.466 556.487 129.466C557.01 129.466 557.484 129.375 557.911 129.193C558.337 129.011 558.697 128.75 558.993 128.409C559.288 128.068 559.499 127.659 559.624 127.182H561.635C561.521 127.955 561.24 128.651 560.791 129.27C560.348 129.884 559.76 130.372 559.027 130.736C558.3 131.094 557.453 131.273 556.487 131.273ZM566.587 123.125V131H564.575V113.545H566.587V119.955H566.757C567.064 119.278 567.524 118.741 568.138 118.344C568.757 117.94 569.581 117.739 570.609 117.739C571.501 117.739 572.283 117.918 572.953 118.276C573.624 118.628 574.143 119.17 574.513 119.903C574.888 120.631 575.075 121.557 575.075 122.682V131H573.064V122.818C573.064 121.778 572.794 120.974 572.254 120.406C571.72 119.832 570.979 119.545 570.03 119.545C569.371 119.545 568.78 119.685 568.257 119.963C567.74 120.241 567.331 120.648 567.03 121.182C566.734 121.716 566.587 122.364 566.587 123.125Z" fill="#767676"/>
<path d="M614.83 53H612.614L619.023 35.5455H621.205L627.614 53H625.398L620.182 38.3068H620.045L614.83 53ZM615.648 46.1818H624.58V48.0568H615.648V46.1818ZM630.332 53V35.5455H632.344V41.9886H632.514C632.662 41.7614 632.866 41.4716 633.128 41.1193C633.395 40.7614 633.776 40.4432 634.27 40.1648C634.77 39.8807 635.446 39.7386 636.298 39.7386C637.401 39.7386 638.372 40.0142 639.213 40.5653C640.054 41.1165 640.71 41.8977 641.182 42.9091C641.653 43.9205 641.889 45.1136 641.889 46.4886C641.889 47.875 641.653 49.0767 641.182 50.0938C640.71 51.1051 640.057 51.8892 639.222 52.446C638.386 52.9972 637.423 53.2727 636.332 53.2727C635.491 53.2727 634.818 53.1335 634.312 52.8551C633.807 52.571 633.418 52.25 633.145 51.892C632.872 51.5284 632.662 51.2273 632.514 50.9886H632.276V53H630.332ZM632.31 46.4545C632.31 47.4432 632.455 48.3153 632.744 49.071C633.034 49.821 633.457 50.4091 634.014 50.8352C634.571 51.2557 635.253 51.4659 636.06 51.4659C636.901 51.4659 637.602 51.2443 638.165 50.8011C638.733 50.3523 639.159 49.75 639.443 48.9943C639.733 48.233 639.878 47.3864 639.878 46.4545C639.878 45.5341 639.736 44.7045 639.452 43.9659C639.173 43.2216 638.75 42.6335 638.182 42.2017C637.619 41.7642 636.912 41.5455 636.06 41.5455C635.241 41.5455 634.554 41.7528 633.997 42.1676C633.44 42.5767 633.02 43.1506 632.736 43.8892C632.452 44.6222 632.31 45.4773 632.31 46.4545ZM650.284 53.2727C649.102 53.2727 648.065 52.9915 647.173 52.429C646.287 51.8665 645.594 51.0795 645.094 50.0682C644.599 49.0568 644.352 47.875 644.352 46.5227C644.352 45.1591 644.599 43.9687 645.094 42.9517C645.594 41.9347 646.287 41.1449 647.173 40.5824C648.065 40.0199 649.102 39.7386 650.284 39.7386C651.466 39.7386 652.5 40.0199 653.386 40.5824C654.278 41.1449 654.972 41.9347 655.466 42.9517C655.966 43.9687 656.216 45.1591 656.216 46.5227C656.216 47.875 655.966 49.0568 655.466 50.0682C654.972 51.0795 654.278 51.8665 653.386 52.429C652.5 52.9915 651.466 53.2727 650.284 53.2727ZM650.284 51.4659C651.182 51.4659 651.92 51.2358 652.5 50.7756C653.08 50.3153 653.509 49.7102 653.787 48.9602C654.065 48.2102 654.205 47.3977 654.205 46.5227C654.205 45.6477 654.065 44.8324 653.787 44.0767C653.509 43.321 653.08 42.7102 652.5 42.2443C651.92 41.7784 651.182 41.5455 650.284 41.5455C649.386 41.5455 648.648 41.7784 648.068 42.2443C647.489 42.7102 647.06 43.321 646.781 44.0767C646.503 44.8324 646.364 45.6477 646.364 46.5227C646.364 47.3977 646.503 48.2102 646.781 48.9602C647.06 49.7102 647.489 50.3153 648.068 50.7756C648.648 51.2358 649.386 51.4659 650.284 51.4659ZM667.536 47.6477V39.9091H669.548V53H667.536V50.7841H667.4C667.093 51.4489 666.616 52.0142 665.968 52.4801C665.32 52.9403 664.502 53.1705 663.513 53.1705C662.695 53.1705 661.968 52.9915 661.332 52.6335C660.695 52.2699 660.195 51.7244 659.832 50.9972C659.468 50.2642 659.286 49.3409 659.286 48.2273V39.9091H661.298V48.0909C661.298 49.0455 661.565 49.8068 662.099 50.375C662.638 50.9432 663.326 51.2273 664.161 51.2273C664.661 51.2273 665.17 51.0994 665.687 50.8438C666.21 50.5881 666.647 50.196 666.999 49.6676C667.357 49.1392 667.536 48.4659 667.536 47.6477ZM678.925 39.9091V41.6136H672.141V39.9091H678.925ZM674.118 36.7727H676.129V49.25C676.129 49.8182 676.212 50.2443 676.376 50.5284C676.547 50.8068 676.763 50.9943 677.024 51.0909C677.291 51.1818 677.572 51.2273 677.868 51.2273C678.089 51.2273 678.271 51.2159 678.413 51.1932C678.555 51.1648 678.669 51.142 678.754 51.125L679.163 52.9318C679.027 52.983 678.837 53.0341 678.592 53.0852C678.348 53.142 678.038 53.1705 677.663 53.1705C677.095 53.1705 676.538 53.0483 675.993 52.804C675.453 52.5597 675.004 52.1875 674.646 51.6875C674.294 51.1875 674.118 50.5568 674.118 49.7955V36.7727Z" fill="#767676"/>
<path d="M317.114 876V858.545H327.58V860.42H319.227V866.318H326.795V868.193H319.227V876H317.114ZM335.284 876.273C334.102 876.273 333.065 875.991 332.173 875.429C331.287 874.866 330.594 874.08 330.094 873.068C329.599 872.057 329.352 870.875 329.352 869.523C329.352 868.159 329.599 866.969 330.094 865.952C330.594 864.935 331.287 864.145 332.173 863.582C333.065 863.02 334.102 862.739 335.284 862.739C336.466 862.739 337.5 863.02 338.386 863.582C339.278 864.145 339.972 864.935 340.466 865.952C340.966 866.969 341.216 868.159 341.216 869.523C341.216 870.875 340.966 872.057 340.466 873.068C339.972 874.08 339.278 874.866 338.386 875.429C337.5 875.991 336.466 876.273 335.284 876.273ZM335.284 874.466C336.182 874.466 336.92 874.236 337.5 873.776C338.08 873.315 338.509 872.71 338.787 871.96C339.065 871.21 339.205 870.398 339.205 869.523C339.205 868.648 339.065 867.832 338.787 867.077C338.509 866.321 338.08 865.71 337.5 865.244C336.92 864.778 336.182 864.545 335.284 864.545C334.386 864.545 333.648 864.778 333.068 865.244C332.489 865.71 332.06 866.321 331.781 867.077C331.503 867.832 331.364 868.648 331.364 869.523C331.364 870.398 331.503 871.21 331.781 871.96C332.06 872.71 332.489 873.315 333.068 873.776C333.648 874.236 334.386 874.466 335.284 874.466ZM349.604 876.273C348.423 876.273 347.386 875.991 346.494 875.429C345.607 874.866 344.914 874.08 344.414 873.068C343.92 872.057 343.673 870.875 343.673 869.523C343.673 868.159 343.92 866.969 344.414 865.952C344.914 864.935 345.607 864.145 346.494 863.582C347.386 863.02 348.423 862.739 349.604 862.739C350.786 862.739 351.82 863.02 352.707 863.582C353.599 864.145 354.292 864.935 354.786 865.952C355.286 866.969 355.536 868.159 355.536 869.523C355.536 870.875 355.286 872.057 354.786 873.068C354.292 874.08 353.599 874.866 352.707 875.429C351.82 875.991 350.786 876.273 349.604 876.273ZM349.604 874.466C350.502 874.466 351.241 874.236 351.82 873.776C352.4 873.315 352.829 872.71 353.107 871.96C353.386 871.21 353.525 870.398 353.525 869.523C353.525 868.648 353.386 867.832 353.107 867.077C352.829 866.321 352.4 865.71 351.82 865.244C351.241 864.778 350.502 864.545 349.604 864.545C348.707 864.545 347.968 864.778 347.388 865.244C346.809 865.71 346.38 866.321 346.102 867.077C345.823 867.832 345.684 868.648 345.684 869.523C345.684 870.398 345.823 871.21 346.102 871.96C346.38 872.71 346.809 873.315 347.388 873.776C347.968 874.236 348.707 874.466 349.604 874.466ZM364.3 862.909V864.614H357.516V862.909H364.3ZM359.493 859.773H361.504V872.25C361.504 872.818 361.587 873.244 361.751 873.528C361.922 873.807 362.138 873.994 362.399 874.091C362.666 874.182 362.947 874.227 363.243 874.227C363.464 874.227 363.646 874.216 363.788 874.193C363.93 874.165 364.044 874.142 364.129 874.125L364.538 875.932C364.402 875.983 364.212 876.034 363.967 876.085C363.723 876.142 363.413 876.17 363.038 876.17C362.47 876.17 361.913 876.048 361.368 875.804C360.828 875.56 360.379 875.188 360.021 874.688C359.669 874.188 359.493 873.557 359.493 872.795V859.773ZM372.673 876.273C371.412 876.273 370.324 875.994 369.409 875.438C368.5 874.875 367.798 874.091 367.304 873.085C366.815 872.074 366.571 870.898 366.571 869.557C366.571 868.216 366.815 867.034 367.304 866.011C367.798 864.983 368.486 864.182 369.366 863.608C370.253 863.028 371.287 862.739 372.469 862.739C373.151 862.739 373.824 862.852 374.489 863.08C375.153 863.307 375.759 863.676 376.304 864.188C376.849 864.693 377.284 865.364 377.608 866.199C377.932 867.034 378.094 868.062 378.094 869.284V870.136H368.003V868.398H376.048C376.048 867.659 375.901 867 375.605 866.42C375.315 865.841 374.901 865.384 374.361 865.048C373.827 864.713 373.196 864.545 372.469 864.545C371.668 864.545 370.974 864.744 370.389 865.142C369.81 865.534 369.364 866.045 369.051 866.676C368.739 867.307 368.582 867.983 368.582 868.705V869.864C368.582 870.852 368.753 871.69 369.094 872.378C369.44 873.06 369.92 873.58 370.534 873.938C371.148 874.29 371.861 874.466 372.673 874.466C373.202 874.466 373.679 874.392 374.105 874.244C374.537 874.091 374.909 873.864 375.222 873.562C375.534 873.256 375.776 872.875 375.946 872.42L377.889 872.966C377.685 873.625 377.341 874.205 376.858 874.705C376.375 875.199 375.778 875.585 375.068 875.864C374.358 876.136 373.56 876.273 372.673 876.273ZM381.153 876V862.909H383.097V864.886H383.233C383.472 864.239 383.903 863.713 384.528 863.31C385.153 862.906 385.858 862.705 386.642 862.705C386.79 862.705 386.974 862.707 387.196 862.713C387.418 862.719 387.585 862.727 387.699 862.739V864.784C387.631 864.767 387.474 864.741 387.23 864.707C386.991 864.668 386.739 864.648 386.472 864.648C385.835 864.648 385.267 864.781 384.767 865.048C384.273 865.31 383.881 865.673 383.591 866.139C383.307 866.599 383.165 867.125 383.165 867.716V876H381.153Z" fill="#767676"/>
</g>
<defs>
<clipPath id="clip0_1_2">
<rect width="727" height="924" fill="white"/>
</clipPath>
</defs>
</svg>
