<svg width="727" height="924" viewBox="0 0 727 924" fill="none" xmlns="http://www.w3.org/2000/svg">
<g clip-path="url(#clip0_1_64)">
<rect width="727" height="924" fill="white"/>
<rect x="19" y="840" width="679" height="55" fill="#D9D9D9"/>
<rect x="155" y="97" width="435.73" height="431" fill="#B3B2B2"/>
<line y1="-2" x2="565.624" y2="-2" transform="matrix(0.724362 0.68942 -0.562068 0.827091 165.839 122.655)" stroke="#767676" stroke-width="4"/>
<line y1="-2" x2="565.624" y2="-2" transform="matrix(0.724362 -0.68942 0.562068 0.827091 165.839 512.607)" stroke="#767676" stroke-width="4"/>
<rect x="204" y="543" width="333" height="60" fill="#D9D9D9"/>
<rect x="19" y="631" width="331" height="60" fill="#D9D9D9"/>
<line y1="-1.5" x2="25.9788" y2="-1.5" transform="matrix(0.5887 0.808351 -0.8536 0.520928 300.842 655)" stroke="#767676" stroke-width="3"/>
<line y1="-1.5" x2="26.6365" y2="-1.5" transform="matrix(-0.615175 0.788391 -0.836963 -0.547259 332.521 655)" stroke="#767676" stroke-width="3"/>
<rect x="364" y="631" width="334" height="60" fill="#D9D9D9"/>
<line y1="-1.5" x2="26.0606" y2="-1.5" transform="matrix(0.59217 0.805813 -0.855679 0.517507 648.396 655)" stroke="#767676" stroke-width="3"/>
<line y1="-1.5" x2="26.7282" y2="-1.5" transform="matrix(-0.618623 0.785688 -0.839214 -0.543802 680.363 655)" stroke="#767676" stroke-width="3"/>
<rect x="19" y="701" width="331" height="60" fill="#D9D9D9"/>
<line y1="-1.5" x2="25.9788" y2="-1.5" transform="matrix(0.5887 0.808351 -0.8536 0.520928 300.842 725)" stroke="#767676" stroke-width="3"/>
<line y1="-1.5" x2="26.6365" y2="-1.5" transform="matrix(-0.615175 0.788391 -0.836963 -0.547259 332.521 725)" stroke="#767676" stroke-width="3"/>
<rect x="19" y="772" width="679" height="60" fill="#D9D9D9"/>
<rect x="364" y="701" width="334" height="60" fill="#D9D9D9"/>
<line y1="-1.5" x2="25.8166" y2="-1.5" transform="matrix(0.581661 0.813431 -0.849317 0.527883 640.733 725)" stroke="#767676" stroke-width="3"/>
<line y1="-1.5" x2="26.4549" y2="-1.5" transform="matrix(-0.608172 0.793805 -0.832332 -0.554278 671.838 725)" stroke="#767676" stroke-width="3"/>
<line y1="-1.5" x2="25.8166" y2="-1.5" transform="matrix(0.581661 0.813431 -0.849317 0.527883 640 792)" stroke="#767676" stroke-width="3"/>
<line y1="-1.5" x2="26.4549" y2="-1.5" transform="matrix(-0.608172 0.793805 -0.832332 -0.554278 671.106 792)" stroke="#767676" stroke-width="3"/>
<rect x="26" y="15" width="679" height="55" fill="#D9D9D9"/>
<path d="M53.8295 50H51.6136L58.0227 32.5455H60.2045L66.6136 50H64.3977L59.1818 35.3068H59.0455L53.8295 50ZM54.6477 43.1818H63.5795V45.0568H54.6477V43.1818ZM69.3324 50V32.5455H75.2301C76.5938 32.5455 77.7131 32.7784 78.5881 33.2443C79.4631 33.7045 80.1108 34.3381 80.5312 35.1449C80.9517 35.9517 81.1619 36.8693 81.1619 37.8977C81.1619 38.9261 80.9517 39.8381 80.5312 40.6335C80.1108 41.429 79.4659 42.054 78.5966 42.5085C77.7273 42.9574 76.6165 43.1818 75.2642 43.1818H70.4915V41.2727H75.196C76.1278 41.2727 76.8778 41.1364 77.446 40.8636C78.0199 40.5909 78.4347 40.2045 78.6903 39.7045C78.9517 39.1989 79.0824 38.5966 79.0824 37.8977C79.0824 37.1989 78.9517 36.5881 78.6903 36.0653C78.429 35.5426 78.0114 35.1392 77.4375 34.8551C76.8636 34.5653 76.1051 34.4205 75.1619 34.4205H71.446V50H69.3324ZM77.5483 42.1591L81.8438 50H79.3892L75.1619 42.1591H77.5483ZM84.6839 50V32.5455H86.7976V41.2045H87.0021L94.843 32.5455H97.6044L90.2749 40.4205L97.6044 50H95.0476L88.9794 41.8864L86.7976 44.3409V50H84.6839ZM102.454 32.5455V50H100.34V32.5455H102.454ZM107.408 32.5455L112.589 47.2386H112.794L117.976 32.5455H120.192L113.783 50H111.601L105.192 32.5455H107.408ZM136.817 41.2727C136.817 43.1136 136.485 44.7045 135.82 46.0455C135.156 47.3864 134.244 48.4205 133.085 49.1477C131.925 49.875 130.602 50.2386 129.113 50.2386C127.624 50.2386 126.3 49.875 125.141 49.1477C123.982 48.4205 123.07 47.3864 122.406 46.0455C121.741 44.7045 121.408 43.1136 121.408 41.2727C121.408 39.4318 121.741 37.8409 122.406 36.5C123.07 35.1591 123.982 34.125 125.141 33.3977C126.3 32.6705 127.624 32.3068 129.113 32.3068C130.602 32.3068 131.925 32.6705 133.085 33.3977C134.244 34.125 135.156 35.1591 135.82 36.5C136.485 37.8409 136.817 39.4318 136.817 41.2727ZM134.772 41.2727C134.772 39.7614 134.519 38.4858 134.013 37.446C133.513 36.4062 132.835 35.6193 131.977 35.0852C131.124 34.5511 130.17 34.2841 129.113 34.2841C128.056 34.2841 127.099 34.5511 126.241 35.0852C125.388 35.6193 124.71 36.4062 124.204 37.446C123.704 38.4858 123.454 39.7614 123.454 41.2727C123.454 42.7841 123.704 44.0597 124.204 45.0994C124.71 46.1392 125.388 46.9261 126.241 47.4602C127.099 47.9943 128.056 48.2614 129.113 48.2614C130.17 48.2614 131.124 47.9943 131.977 47.4602C132.835 46.9261 133.513 46.1392 134.013 45.0994C134.519 44.0597 134.772 42.7841 134.772 41.2727Z" fill="#767676"/>
<path d="M495.83 50H493.614L500.023 32.5455H502.205L508.614 50H506.398L501.182 35.3068H501.045L495.83 50ZM496.648 43.1818H505.58V45.0568H496.648V43.1818ZM511.06 50V36.9091H513.003V38.8864H513.139C513.378 38.2386 513.81 37.7131 514.435 37.3097C515.06 36.9062 515.764 36.7045 516.548 36.7045C516.696 36.7045 516.881 36.7074 517.102 36.7131C517.324 36.7187 517.491 36.7273 517.605 36.7386V38.7841C517.537 38.767 517.381 38.7415 517.136 38.7074C516.898 38.6676 516.645 38.6477 516.378 38.6477C515.741 38.6477 515.173 38.7812 514.673 39.0483C514.179 39.3097 513.787 39.6733 513.497 40.1392C513.213 40.5994 513.071 41.125 513.071 41.7159V50H511.06ZM526.503 36.9091V38.6136H519.719V36.9091H526.503ZM521.696 33.7727H523.707V46.25C523.707 46.8182 523.79 47.2443 523.955 47.5284C524.125 47.8068 524.341 47.9943 524.602 48.0909C524.869 48.1818 525.151 48.2273 525.446 48.2273C525.668 48.2273 525.849 48.2159 525.991 48.1932C526.134 48.1648 526.247 48.142 526.332 48.125L526.741 49.9318C526.605 49.983 526.415 50.0341 526.17 50.0852C525.926 50.142 525.616 50.1705 525.241 50.1705C524.673 50.1705 524.116 50.0483 523.571 49.804C523.031 49.5597 522.582 49.1875 522.224 48.6875C521.872 48.1875 521.696 47.5568 521.696 46.7955V33.7727ZM529.528 50V36.9091H531.54V50H529.528ZM530.551 34.7273C530.159 34.7273 529.821 34.5938 529.537 34.3267C529.259 34.0597 529.119 33.7386 529.119 33.3636C529.119 32.9886 529.259 32.6676 529.537 32.4006C529.821 32.1335 530.159 32 530.551 32C530.943 32 531.278 32.1335 531.557 32.4006C531.841 32.6676 531.983 32.9886 531.983 33.3636C531.983 33.7386 531.841 34.0597 531.557 34.3267C531.278 34.5938 530.943 34.7273 530.551 34.7273ZM541.053 36.9091V38.6136H533.996V36.9091H541.053ZM536.11 50V35.1023C536.11 34.3523 536.286 33.7273 536.638 33.2273C536.991 32.7273 537.448 32.3523 538.011 32.1023C538.573 31.8523 539.167 31.7273 539.792 31.7273C540.286 31.7273 540.69 31.767 541.002 31.8466C541.315 31.9261 541.548 32 541.701 32.0682L541.121 33.8068C541.019 33.7727 540.877 33.7301 540.695 33.679C540.519 33.6278 540.286 33.6023 539.996 33.6023C539.332 33.6023 538.852 33.7699 538.556 34.1051C538.266 34.4403 538.121 34.9318 538.121 35.5795V50H536.11ZM547.349 50.3068C546.52 50.3068 545.767 50.1506 545.091 49.8381C544.415 49.5199 543.878 49.0625 543.48 48.4659C543.082 47.8636 542.884 47.1364 542.884 46.2841C542.884 45.5341 543.031 44.9261 543.327 44.4602C543.622 43.9886 544.017 43.6193 544.511 43.3523C545.006 43.0852 545.551 42.8864 546.148 42.7557C546.75 42.6193 547.355 42.5114 547.963 42.4318C548.759 42.3295 549.403 42.2528 549.898 42.2017C550.398 42.1449 550.761 42.0511 550.989 41.9205C551.222 41.7898 551.338 41.5625 551.338 41.2386V41.1705C551.338 40.3295 551.108 39.6761 550.648 39.2102C550.193 38.7443 549.503 38.5114 548.577 38.5114C547.616 38.5114 546.864 38.7216 546.318 39.142C545.773 39.5625 545.389 40.0114 545.168 40.4886L543.259 39.8068C543.599 39.0114 544.054 38.392 544.622 37.9489C545.196 37.5 545.821 37.1875 546.497 37.0114C547.179 36.8295 547.849 36.7386 548.509 36.7386C548.929 36.7386 549.412 36.7898 549.957 36.892C550.509 36.9886 551.04 37.1903 551.551 37.4972C552.068 37.804 552.497 38.267 552.838 38.8864C553.179 39.5057 553.349 40.3352 553.349 41.375V50H551.338V48.2273H551.236C551.099 48.5114 550.872 48.8153 550.554 49.1392C550.236 49.4631 549.813 49.7386 549.284 49.9659C548.756 50.1932 548.111 50.3068 547.349 50.3068ZM547.656 48.5C548.452 48.5 549.122 48.3438 549.668 48.0312C550.219 47.7188 550.634 47.3153 550.912 46.821C551.196 46.3267 551.338 45.8068 551.338 45.2614V43.4205C551.253 43.5227 551.065 43.6165 550.776 43.7017C550.491 43.7812 550.162 43.8523 549.787 43.9148C549.418 43.9716 549.057 44.0227 548.705 44.0682C548.358 44.108 548.077 44.142 547.861 44.1705C547.338 44.2386 546.849 44.3494 546.395 44.5028C545.946 44.6506 545.582 44.875 545.304 45.1761C545.031 45.4716 544.895 45.875 544.895 46.3864C544.895 47.0852 545.153 47.6136 545.67 47.9716C546.193 48.3239 546.855 48.5 547.656 48.5ZM562.339 50.2727C561.112 50.2727 560.055 49.983 559.168 49.4034C558.282 48.8239 557.6 48.0256 557.123 47.0085C556.646 45.9915 556.407 44.8295 556.407 43.5227C556.407 42.1932 556.651 41.0199 557.14 40.0028C557.634 38.9801 558.322 38.1818 559.202 37.608C560.089 37.0284 561.123 36.7386 562.305 36.7386C563.225 36.7386 564.055 36.9091 564.793 37.25C565.532 37.5909 566.137 38.0682 566.609 38.6818C567.08 39.2955 567.373 40.0114 567.487 40.8295H565.475C565.322 40.233 564.981 39.7045 564.452 39.2443C563.93 38.7784 563.225 38.5455 562.339 38.5455C561.555 38.5455 560.867 38.75 560.276 39.1591C559.691 39.5625 559.234 40.1335 558.904 40.8722C558.58 41.6051 558.418 42.4659 558.418 43.4545C558.418 44.4659 558.577 45.3466 558.896 46.0966C559.219 46.8466 559.674 47.429 560.259 47.8438C560.85 48.2585 561.543 48.4659 562.339 48.4659C562.862 48.4659 563.336 48.375 563.762 48.1932C564.188 48.0114 564.549 47.75 564.844 47.4091C565.14 47.0682 565.35 46.6591 565.475 46.1818H567.487C567.373 46.9545 567.092 47.6506 566.643 48.2699C566.2 48.8835 565.612 49.3722 564.879 49.7358C564.151 50.0938 563.305 50.2727 562.339 50.2727ZM576.12 36.9091V38.6136H569.336V36.9091H576.12ZM571.313 33.7727H573.325V46.25C573.325 46.8182 573.407 47.2443 573.572 47.5284C573.742 47.8068 573.958 47.9943 574.219 48.0909C574.487 48.1818 574.768 48.2273 575.063 48.2273C575.285 48.2273 575.467 48.2159 575.609 48.1932C575.751 48.1648 575.864 48.142 575.95 48.125L576.359 49.9318C576.222 49.983 576.032 50.0341 575.788 50.0852C575.543 50.142 575.234 50.1705 574.859 50.1705C574.29 50.1705 573.734 50.0483 573.188 49.804C572.648 49.5597 572.2 49.1875 571.842 48.6875C571.489 48.1875 571.313 47.5568 571.313 46.7955V33.7727ZM588.184 39.8409L586.377 40.3523C586.263 40.0511 586.096 39.7585 585.874 39.4744C585.658 39.1847 585.363 38.946 584.988 38.7585C584.613 38.571 584.133 38.4773 583.548 38.4773C582.746 38.4773 582.079 38.6619 581.545 39.0312C581.016 39.3949 580.752 39.858 580.752 40.4205C580.752 40.9205 580.934 41.3153 581.298 41.6051C581.661 41.8949 582.229 42.1364 583.002 42.3295L584.945 42.8068C586.116 43.0909 586.988 43.5256 587.562 44.1108C588.136 44.6903 588.423 45.4375 588.423 46.3523C588.423 47.1023 588.207 47.7727 587.775 48.3636C587.349 48.9545 586.752 49.4205 585.985 49.7614C585.218 50.1023 584.326 50.2727 583.309 50.2727C581.974 50.2727 580.869 49.983 579.994 49.4034C579.119 48.8239 578.565 47.9773 578.332 46.8636L580.241 46.3864C580.423 47.0909 580.766 47.6193 581.272 47.9716C581.783 48.3239 582.451 48.5 583.275 48.5C584.212 48.5 584.957 48.3011 585.508 47.9034C586.065 47.5 586.343 47.017 586.343 46.4545C586.343 46 586.184 45.6193 585.866 45.3125C585.548 45 585.059 44.767 584.4 44.6136L582.218 44.1023C581.019 43.8182 580.138 43.3778 579.576 42.7812C579.019 42.179 578.741 41.4261 578.741 40.5227C578.741 39.7841 578.948 39.1307 579.363 38.5625C579.783 37.9943 580.354 37.5483 581.076 37.2244C581.803 36.9006 582.627 36.7386 583.548 36.7386C584.843 36.7386 585.86 37.0227 586.599 37.5909C587.343 38.1591 587.871 38.9091 588.184 39.8409Z" fill="#767676"/>
<path d="M495.83 50H493.614L500.023 32.5455H502.205L508.614 50H506.398L501.182 35.3068H501.045L495.83 50ZM496.648 43.1818H505.58V45.0568H496.648V43.1818ZM511.06 50V36.9091H513.003V38.8864H513.139C513.378 38.2386 513.81 37.7131 514.435 37.3097C515.06 36.9062 515.764 36.7045 516.548 36.7045C516.696 36.7045 516.881 36.7074 517.102 36.7131C517.324 36.7187 517.491 36.7273 517.605 36.7386V38.7841C517.537 38.767 517.381 38.7415 517.136 38.7074C516.898 38.6676 516.645 38.6477 516.378 38.6477C515.741 38.6477 515.173 38.7812 514.673 39.0483C514.179 39.3097 513.787 39.6733 513.497 40.1392C513.213 40.5994 513.071 41.125 513.071 41.7159V50H511.06ZM526.503 36.9091V38.6136H519.719V36.9091H526.503ZM521.696 33.7727H523.707V46.25C523.707 46.8182 523.79 47.2443 523.955 47.5284C524.125 47.8068 524.341 47.9943 524.602 48.0909C524.869 48.1818 525.151 48.2273 525.446 48.2273C525.668 48.2273 525.849 48.2159 525.991 48.1932C526.134 48.1648 526.247 48.142 526.332 48.125L526.741 49.9318C526.605 49.983 526.415 50.0341 526.17 50.0852C525.926 50.142 525.616 50.1705 525.241 50.1705C524.673 50.1705 524.116 50.0483 523.571 49.804C523.031 49.5597 522.582 49.1875 522.224 48.6875C521.872 48.1875 521.696 47.5568 521.696 46.7955V33.7727ZM529.528 50V36.9091H531.54V50H529.528ZM530.551 34.7273C530.159 34.7273 529.821 34.5938 529.537 34.3267C529.259 34.0597 529.119 33.7386 529.119 33.3636C529.119 32.9886 529.259 32.6676 529.537 32.4006C529.821 32.1335 530.159 32 530.551 32C530.943 32 531.278 32.1335 531.557 32.4006C531.841 32.6676 531.983 32.9886 531.983 33.3636C531.983 33.7386 531.841 34.0597 531.557 34.3267C531.278 34.5938 530.943 34.7273 530.551 34.7273ZM541.053 36.9091V38.6136H533.996V36.9091H541.053ZM536.11 50V35.1023C536.11 34.3523 536.286 33.7273 536.638 33.2273C536.991 32.7273 537.448 32.3523 538.011 32.1023C538.573 31.8523 539.167 31.7273 539.792 31.7273C540.286 31.7273 540.69 31.767 541.002 31.8466C541.315 31.9261 541.548 32 541.701 32.0682L541.121 33.8068C541.019 33.7727 540.877 33.7301 540.695 33.679C540.519 33.6278 540.286 33.6023 539.996 33.6023C539.332 33.6023 538.852 33.7699 538.556 34.1051C538.266 34.4403 538.121 34.9318 538.121 35.5795V50H536.11ZM547.349 50.3068C546.52 50.3068 545.767 50.1506 545.091 49.8381C544.415 49.5199 543.878 49.0625 543.48 48.4659C543.082 47.8636 542.884 47.1364 542.884 46.2841C542.884 45.5341 543.031 44.9261 543.327 44.4602C543.622 43.9886 544.017 43.6193 544.511 43.3523C545.006 43.0852 545.551 42.8864 546.148 42.7557C546.75 42.6193 547.355 42.5114 547.963 42.4318C548.759 42.3295 549.403 42.2528 549.898 42.2017C550.398 42.1449 550.761 42.0511 550.989 41.9205C551.222 41.7898 551.338 41.5625 551.338 41.2386V41.1705C551.338 40.3295 551.108 39.6761 550.648 39.2102C550.193 38.7443 549.503 38.5114 548.577 38.5114C547.616 38.5114 546.864 38.7216 546.318 39.142C545.773 39.5625 545.389 40.0114 545.168 40.4886L543.259 39.8068C543.599 39.0114 544.054 38.392 544.622 37.9489C545.196 37.5 545.821 37.1875 546.497 37.0114C547.179 36.8295 547.849 36.7386 548.509 36.7386C548.929 36.7386 549.412 36.7898 549.957 36.892C550.509 36.9886 551.04 37.1903 551.551 37.4972C552.068 37.804 552.497 38.267 552.838 38.8864C553.179 39.5057 553.349 40.3352 553.349 41.375V50H551.338V48.2273H551.236C551.099 48.5114 550.872 48.8153 550.554 49.1392C550.236 49.4631 549.813 49.7386 549.284 49.9659C548.756 50.1932 548.111 50.3068 547.349 50.3068ZM547.656 48.5C548.452 48.5 549.122 48.3438 549.668 48.0312C550.219 47.7188 550.634 47.3153 550.912 46.821C551.196 46.3267 551.338 45.8068 551.338 45.2614V43.4205C551.253 43.5227 551.065 43.6165 550.776 43.7017C550.491 43.7812 550.162 43.8523 549.787 43.9148C549.418 43.9716 549.057 44.0227 548.705 44.0682C548.358 44.108 548.077 44.142 547.861 44.1705C547.338 44.2386 546.849 44.3494 546.395 44.5028C545.946 44.6506 545.582 44.875 545.304 45.1761C545.031 45.4716 544.895 45.875 544.895 46.3864C544.895 47.0852 545.153 47.6136 545.67 47.9716C546.193 48.3239 546.855 48.5 547.656 48.5ZM562.339 50.2727C561.112 50.2727 560.055 49.983 559.168 49.4034C558.282 48.8239 557.6 48.0256 557.123 47.0085C556.646 45.9915 556.407 44.8295 556.407 43.5227C556.407 42.1932 556.651 41.0199 557.14 40.0028C557.634 38.9801 558.322 38.1818 559.202 37.608C560.089 37.0284 561.123 36.7386 562.305 36.7386C563.225 36.7386 564.055 36.9091 564.793 37.25C565.532 37.5909 566.137 38.0682 566.609 38.6818C567.08 39.2955 567.373 40.0114 567.487 40.8295H565.475C565.322 40.233 564.981 39.7045 564.452 39.2443C563.93 38.7784 563.225 38.5455 562.339 38.5455C561.555 38.5455 560.867 38.75 560.276 39.1591C559.691 39.5625 559.234 40.1335 558.904 40.8722C558.58 41.6051 558.418 42.4659 558.418 43.4545C558.418 44.4659 558.577 45.3466 558.896 46.0966C559.219 46.8466 559.674 47.429 560.259 47.8438C560.85 48.2585 561.543 48.4659 562.339 48.4659C562.862 48.4659 563.336 48.375 563.762 48.1932C564.188 48.0114 564.549 47.75 564.844 47.4091C565.14 47.0682 565.35 46.6591 565.475 46.1818H567.487C567.373 46.9545 567.092 47.6506 566.643 48.2699C566.2 48.8835 565.612 49.3722 564.879 49.7358C564.151 50.0938 563.305 50.2727 562.339 50.2727ZM576.12 36.9091V38.6136H569.336V36.9091H576.12ZM571.313 33.7727H573.325V46.25C573.325 46.8182 573.407 47.2443 573.572 47.5284C573.742 47.8068 573.958 47.9943 574.219 48.0909C574.487 48.1818 574.768 48.2273 575.063 48.2273C575.285 48.2273 575.467 48.2159 575.609 48.1932C575.751 48.1648 575.864 48.142 575.95 48.125L576.359 49.9318C576.222 49.983 576.032 50.0341 575.788 50.0852C575.543 50.142 575.234 50.1705 574.859 50.1705C574.29 50.1705 573.734 50.0483 573.188 49.804C572.648 49.5597 572.2 49.1875 571.842 48.6875C571.489 48.1875 571.313 47.5568 571.313 46.7955V33.7727ZM588.184 39.8409L586.377 40.3523C586.263 40.0511 586.096 39.7585 585.874 39.4744C585.658 39.1847 585.363 38.946 584.988 38.7585C584.613 38.571 584.133 38.4773 583.548 38.4773C582.746 38.4773 582.079 38.6619 581.545 39.0312C581.016 39.3949 580.752 39.858 580.752 40.4205C580.752 40.9205 580.934 41.3153 581.298 41.6051C581.661 41.8949 582.229 42.1364 583.002 42.3295L584.945 42.8068C586.116 43.0909 586.988 43.5256 587.562 44.1108C588.136 44.6903 588.423 45.4375 588.423 46.3523C588.423 47.1023 588.207 47.7727 587.775 48.3636C587.349 48.9545 586.752 49.4205 585.985 49.7614C585.218 50.1023 584.326 50.2727 583.309 50.2727C581.974 50.2727 580.869 49.983 579.994 49.4034C579.119 48.8239 578.565 47.9773 578.332 46.8636L580.241 46.3864C580.423 47.0909 580.766 47.6193 581.272 47.9716C581.783 48.3239 582.451 48.5 583.275 48.5C584.212 48.5 584.957 48.3011 585.508 47.9034C586.065 47.5 586.343 47.017 586.343 46.4545C586.343 46 586.184 45.6193 585.866 45.3125C585.548 45 585.059 44.767 584.4 44.6136L582.218 44.1023C581.019 43.8182 580.138 43.3778 579.576 42.7812C579.019 42.179 578.741 41.4261 578.741 40.5227C578.741 39.7841 578.948 39.1307 579.363 38.5625C579.783 37.9943 580.354 37.5483 581.076 37.2244C581.803 36.9006 582.627 36.7386 583.548 36.7386C584.843 36.7386 585.86 37.0227 586.599 37.5909C587.343 38.1591 587.871 38.9091 588.184 39.8409Z" fill="#767676"/>
<path d="M335.28 557.42V555.545H348.371V557.42H342.882V573H340.769V557.42H335.28ZM351.36 573V559.909H353.372V573H351.36ZM352.383 557.727C351.991 557.727 351.653 557.594 351.369 557.327C351.091 557.06 350.951 556.739 350.951 556.364C350.951 555.989 351.091 555.668 351.369 555.401C351.653 555.134 351.991 555 352.383 555C352.775 555 353.11 555.134 353.389 555.401C353.673 555.668 353.815 555.989 353.815 556.364C353.815 556.739 353.673 557.06 353.389 557.327C353.11 557.594 352.775 557.727 352.383 557.727ZM362.749 559.909V561.614H355.965V559.909H362.749ZM357.942 556.773H359.953V569.25C359.953 569.818 360.036 570.244 360.201 570.528C360.371 570.807 360.587 570.994 360.848 571.091C361.115 571.182 361.397 571.227 361.692 571.227C361.914 571.227 362.096 571.216 362.238 571.193C362.38 571.165 362.493 571.142 362.578 571.125L362.988 572.932C362.851 572.983 362.661 573.034 362.417 573.085C362.172 573.142 361.863 573.17 361.488 573.17C360.919 573.17 360.363 573.048 359.817 572.804C359.277 572.56 358.828 572.188 358.471 571.688C358.118 571.188 357.942 570.557 357.942 569.795V556.773ZM368.067 555.545V573H366.056V555.545H368.067ZM377.24 573.273C375.978 573.273 374.89 572.994 373.975 572.438C373.066 571.875 372.365 571.091 371.87 570.085C371.382 569.074 371.137 567.898 371.137 566.557C371.137 565.216 371.382 564.034 371.87 563.011C372.365 561.983 373.052 561.182 373.933 560.608C374.819 560.028 375.853 559.739 377.035 559.739C377.717 559.739 378.39 559.852 379.055 560.08C379.72 560.307 380.325 560.676 380.87 561.188C381.416 561.693 381.85 562.364 382.174 563.199C382.498 564.034 382.66 565.062 382.66 566.284V567.136H372.569V565.398H380.615C380.615 564.659 380.467 564 380.172 563.42C379.882 562.841 379.467 562.384 378.927 562.048C378.393 561.713 377.762 561.545 377.035 561.545C376.234 561.545 375.541 561.744 374.956 562.142C374.376 562.534 373.93 563.045 373.618 563.676C373.305 564.307 373.149 564.983 373.149 565.705V566.864C373.149 567.852 373.319 568.69 373.66 569.378C374.007 570.06 374.487 570.58 375.1 570.938C375.714 571.29 376.427 571.466 377.24 571.466C377.768 571.466 378.245 571.392 378.672 571.244C379.103 571.091 379.475 570.864 379.788 570.562C380.1 570.256 380.342 569.875 380.512 569.42L382.456 569.966C382.251 570.625 381.907 571.205 381.424 571.705C380.941 572.199 380.345 572.585 379.635 572.864C378.924 573.136 378.126 573.273 377.24 573.273Z" fill="#767676"/>
<path d="M42.5 672H37.1136V654.545H42.7386C44.4318 654.545 45.8807 654.895 47.0852 655.594C48.2898 656.287 49.2131 657.284 49.8551 658.585C50.4972 659.881 50.8182 661.432 50.8182 663.239C50.8182 665.057 50.4943 666.622 49.8466 667.935C49.1989 669.241 48.2557 670.247 47.017 670.952C45.7784 671.651 44.2727 672 42.5 672ZM39.2273 670.125H42.3636C43.8068 670.125 45.0028 669.847 45.9517 669.29C46.9006 668.733 47.608 667.94 48.0739 666.912C48.5398 665.884 48.7727 664.659 48.7727 663.239C48.7727 661.83 48.5426 660.616 48.0824 659.599C47.6222 658.577 46.9347 657.793 46.0199 657.247C45.1051 656.696 43.9659 656.42 42.6023 656.42H39.2273V670.125ZM59.5795 672.273C58.3182 672.273 57.2301 671.994 56.3153 671.438C55.4062 670.875 54.7045 670.091 54.2102 669.085C53.7216 668.074 53.4773 666.898 53.4773 665.557C53.4773 664.216 53.7216 663.034 54.2102 662.011C54.7045 660.983 55.392 660.182 56.2727 659.608C57.1591 659.028 58.1932 658.739 59.375 658.739C60.0568 658.739 60.7301 658.852 61.3949 659.08C62.0597 659.307 62.6648 659.676 63.2102 660.188C63.7557 660.693 64.1903 661.364 64.5142 662.199C64.8381 663.034 65 664.062 65 665.284V666.136H54.9091V664.398H62.9545C62.9545 663.659 62.8068 663 62.5114 662.42C62.2216 661.841 61.8068 661.384 61.267 661.048C60.733 660.713 60.1023 660.545 59.375 660.545C58.5739 660.545 57.8807 660.744 57.2955 661.142C56.7159 661.534 56.2699 662.045 55.9574 662.676C55.6449 663.307 55.4886 663.983 55.4886 664.705V665.864C55.4886 666.852 55.6591 667.69 56 668.378C56.3466 669.06 56.8267 669.58 57.4403 669.938C58.054 670.29 58.767 670.466 59.5795 670.466C60.108 670.466 60.5852 670.392 61.0114 670.244C61.4432 670.091 61.8153 669.864 62.1278 669.562C62.4403 669.256 62.6818 668.875 62.8523 668.42L64.7955 668.966C64.5909 669.625 64.2472 670.205 63.7642 670.705C63.2813 671.199 62.6847 671.585 61.9744 671.864C61.2642 672.136 60.4659 672.273 59.5795 672.273ZM77.3324 661.841L75.5256 662.352C75.4119 662.051 75.2443 661.759 75.0227 661.474C74.8068 661.185 74.5114 660.946 74.1364 660.759C73.7614 660.571 73.2812 660.477 72.696 660.477C71.8949 660.477 71.2273 660.662 70.6932 661.031C70.1648 661.395 69.9006 661.858 69.9006 662.42C69.9006 662.92 70.0824 663.315 70.446 663.605C70.8097 663.895 71.3778 664.136 72.1506 664.33L74.0938 664.807C75.2642 665.091 76.1364 665.526 76.7102 666.111C77.2841 666.69 77.571 667.437 77.571 668.352C77.571 669.102 77.3551 669.773 76.9233 670.364C76.4972 670.955 75.9006 671.42 75.1335 671.761C74.3665 672.102 73.4744 672.273 72.4574 672.273C71.1222 672.273 70.017 671.983 69.142 671.403C68.267 670.824 67.7131 669.977 67.4801 668.864L69.3892 668.386C69.571 669.091 69.9148 669.619 70.4205 669.972C70.9318 670.324 71.5994 670.5 72.4233 670.5C73.3608 670.5 74.1051 670.301 74.6562 669.903C75.2131 669.5 75.4915 669.017 75.4915 668.455C75.4915 668 75.3324 667.619 75.0142 667.312C74.696 667 74.2074 666.767 73.5483 666.614L71.3665 666.102C70.1676 665.818 69.2869 665.378 68.7244 664.781C68.1676 664.179 67.8892 663.426 67.8892 662.523C67.8892 661.784 68.0966 661.131 68.5114 660.562C68.9318 659.994 69.5028 659.548 70.2244 659.224C70.9517 658.901 71.7756 658.739 72.696 658.739C73.9915 658.739 75.0085 659.023 75.7472 659.591C76.4915 660.159 77.0199 660.909 77.3324 661.841ZM85.9169 672.273C84.6896 672.273 83.6328 671.983 82.7464 671.403C81.8601 670.824 81.1783 670.026 80.701 669.009C80.2237 667.991 79.9851 666.83 79.9851 665.523C79.9851 664.193 80.2294 663.02 80.718 662.003C81.2124 660.98 81.8999 660.182 82.7805 659.608C83.6669 659.028 84.701 658.739 85.8828 658.739C86.8033 658.739 87.6328 658.909 88.3714 659.25C89.1101 659.591 89.7152 660.068 90.1868 660.682C90.6584 661.295 90.951 662.011 91.0646 662.83H89.0533C88.8999 662.233 88.5589 661.705 88.0305 661.244C87.5078 660.778 86.8033 660.545 85.9169 660.545C85.1328 660.545 84.4453 660.75 83.8544 661.159C83.2692 661.562 82.8118 662.134 82.4822 662.872C82.1584 663.605 81.9964 664.466 81.9964 665.455C81.9964 666.466 82.1555 667.347 82.4737 668.097C82.7976 668.847 83.2521 669.429 83.8374 669.844C84.4283 670.259 85.1214 670.466 85.9169 670.466C86.4396 670.466 86.9141 670.375 87.3402 670.193C87.7663 670.011 88.1271 669.75 88.4226 669.409C88.718 669.068 88.9283 668.659 89.0533 668.182H91.0646C90.951 668.955 90.6697 669.651 90.2209 670.27C89.7777 670.884 89.1896 671.372 88.4567 671.736C87.7294 672.094 86.8828 672.273 85.9169 672.273ZM94.005 672V658.909H95.9482V660.886H96.0845C96.3232 660.239 96.755 659.713 97.38 659.31C98.005 658.906 98.7095 658.705 99.4936 658.705C99.6413 658.705 99.826 658.707 100.048 658.713C100.269 658.719 100.437 658.727 100.55 658.739V660.784C100.482 660.767 100.326 660.741 100.082 660.707C99.843 660.668 99.5902 660.648 99.3232 660.648C98.6868 660.648 98.1186 660.781 97.6186 661.048C97.1243 661.31 96.7322 661.673 96.4425 662.139C96.1584 662.599 96.0163 663.125 96.0163 663.716V672H94.005ZM102.935 672V658.909H104.946V672H102.935ZM103.957 656.727C103.565 656.727 103.227 656.594 102.943 656.327C102.665 656.06 102.526 655.739 102.526 655.364C102.526 654.989 102.665 654.668 102.943 654.401C103.227 654.134 103.565 654 103.957 654C104.349 654 104.685 654.134 104.963 654.401C105.247 654.668 105.389 654.989 105.389 655.364C105.389 655.739 105.247 656.06 104.963 656.327C104.685 656.594 104.349 656.727 103.957 656.727ZM108.63 676.909V658.909H110.573V660.989H110.812C110.96 660.761 111.164 660.472 111.425 660.119C111.692 659.761 112.073 659.443 112.567 659.165C113.067 658.881 113.744 658.739 114.596 658.739C115.698 658.739 116.67 659.014 117.511 659.565C118.352 660.116 119.008 660.898 119.479 661.909C119.951 662.92 120.187 664.114 120.187 665.489C120.187 666.875 119.951 668.077 119.479 669.094C119.008 670.105 118.354 670.889 117.519 671.446C116.684 671.997 115.721 672.273 114.63 672.273C113.789 672.273 113.116 672.134 112.61 671.855C112.104 671.571 111.715 671.25 111.442 670.892C111.17 670.528 110.96 670.227 110.812 669.989H110.641V676.909H108.63ZM110.607 665.455C110.607 666.443 110.752 667.315 111.042 668.071C111.332 668.821 111.755 669.409 112.312 669.835C112.869 670.256 113.55 670.466 114.357 670.466C115.198 670.466 115.9 670.244 116.462 669.801C117.031 669.352 117.457 668.75 117.741 667.994C118.031 667.233 118.175 666.386 118.175 665.455C118.175 664.534 118.033 663.705 117.749 662.966C117.471 662.222 117.048 661.634 116.479 661.202C115.917 660.764 115.21 660.545 114.357 660.545C113.539 660.545 112.852 660.753 112.295 661.168C111.738 661.577 111.317 662.151 111.033 662.889C110.749 663.622 110.607 664.477 110.607 665.455ZM128.948 658.909V660.614H122.164V658.909H128.948ZM124.141 655.773H126.153V668.25C126.153 668.818 126.235 669.244 126.4 669.528C126.57 669.807 126.786 669.994 127.048 670.091C127.315 670.182 127.596 670.227 127.891 670.227C128.113 670.227 128.295 670.216 128.437 670.193C128.579 670.165 128.692 670.142 128.778 670.125L129.187 671.932C129.05 671.983 128.86 672.034 128.616 672.085C128.371 672.142 128.062 672.17 127.687 672.17C127.119 672.17 126.562 672.048 126.016 671.804C125.477 671.56 125.028 671.188 124.67 670.688C124.317 670.188 124.141 669.557 124.141 668.795V655.773ZM131.974 672V658.909H133.985V672H131.974ZM132.996 656.727C132.604 656.727 132.266 656.594 131.982 656.327C131.704 656.06 131.565 655.739 131.565 655.364C131.565 654.989 131.704 654.668 131.982 654.401C132.266 654.134 132.604 654 132.996 654C133.388 654 133.724 654.134 134.002 654.401C134.286 654.668 134.428 654.989 134.428 655.364C134.428 655.739 134.286 656.06 134.002 656.327C133.724 656.594 133.388 656.727 132.996 656.727ZM142.987 672.273C141.805 672.273 140.768 671.991 139.876 671.429C138.99 670.866 138.297 670.08 137.797 669.068C137.303 668.057 137.055 666.875 137.055 665.523C137.055 664.159 137.303 662.969 137.797 661.952C138.297 660.935 138.99 660.145 139.876 659.582C140.768 659.02 141.805 658.739 142.987 658.739C144.169 658.739 145.203 659.02 146.089 659.582C146.982 660.145 147.675 660.935 148.169 661.952C148.669 662.969 148.919 664.159 148.919 665.523C148.919 666.875 148.669 668.057 148.169 669.068C147.675 670.08 146.982 670.866 146.089 671.429C145.203 671.991 144.169 672.273 142.987 672.273ZM142.987 670.466C143.885 670.466 144.624 670.236 145.203 669.776C145.783 669.315 146.212 668.71 146.49 667.96C146.768 667.21 146.908 666.398 146.908 665.523C146.908 664.648 146.768 663.832 146.49 663.077C146.212 662.321 145.783 661.71 145.203 661.244C144.624 660.778 143.885 660.545 142.987 660.545C142.089 660.545 141.351 660.778 140.771 661.244C140.192 661.71 139.763 662.321 139.484 663.077C139.206 663.832 139.067 664.648 139.067 665.523C139.067 666.398 139.206 667.21 139.484 667.96C139.763 668.71 140.192 669.315 140.771 669.776C141.351 670.236 142.089 670.466 142.987 670.466ZM154.001 664.125V672H151.989V658.909H153.933V660.955H154.103C154.41 660.29 154.876 659.756 155.501 659.352C156.126 658.943 156.933 658.739 157.921 658.739C158.808 658.739 159.583 658.92 160.248 659.284C160.913 659.642 161.43 660.188 161.799 660.92C162.168 661.648 162.353 662.568 162.353 663.682V672H160.342V663.818C160.342 662.79 160.075 661.989 159.54 661.415C159.006 660.835 158.273 660.545 157.342 660.545C156.7 660.545 156.126 660.685 155.62 660.963C155.12 661.241 154.725 661.648 154.435 662.182C154.146 662.716 154.001 663.364 154.001 664.125Z" fill="#767676"/>
<path d="M42.5 737H37.1136V719.545H42.7386C44.4318 719.545 45.8807 719.895 47.0852 720.594C48.2898 721.287 49.2131 722.284 49.8551 723.585C50.4972 724.881 50.8182 726.432 50.8182 728.239C50.8182 730.057 50.4943 731.622 49.8466 732.935C49.1989 734.241 48.2557 735.247 47.017 735.952C45.7784 736.651 44.2727 737 42.5 737ZM39.2273 735.125H42.3636C43.8068 735.125 45.0028 734.847 45.9517 734.29C46.9006 733.733 47.608 732.94 48.0739 731.912C48.5398 730.884 48.7727 729.659 48.7727 728.239C48.7727 726.83 48.5426 725.616 48.0824 724.599C47.6222 723.577 46.9347 722.793 46.0199 722.247C45.1051 721.696 43.9659 721.42 42.6023 721.42H39.2273V735.125ZM59.5795 737.273C58.3182 737.273 57.2301 736.994 56.3153 736.438C55.4062 735.875 54.7045 735.091 54.2102 734.085C53.7216 733.074 53.4773 731.898 53.4773 730.557C53.4773 729.216 53.7216 728.034 54.2102 727.011C54.7045 725.983 55.392 725.182 56.2727 724.608C57.1591 724.028 58.1932 723.739 59.375 723.739C60.0568 723.739 60.7301 723.852 61.3949 724.08C62.0597 724.307 62.6648 724.676 63.2102 725.188C63.7557 725.693 64.1903 726.364 64.5142 727.199C64.8381 728.034 65 729.062 65 730.284V731.136H54.9091V729.398H62.9545C62.9545 728.659 62.8068 728 62.5114 727.42C62.2216 726.841 61.8068 726.384 61.267 726.048C60.733 725.713 60.1023 725.545 59.375 725.545C58.5739 725.545 57.8807 725.744 57.2955 726.142C56.7159 726.534 56.2699 727.045 55.9574 727.676C55.6449 728.307 55.4886 728.983 55.4886 729.705V730.864C55.4886 731.852 55.6591 732.69 56 733.378C56.3466 734.06 56.8267 734.58 57.4403 734.938C58.054 735.29 58.767 735.466 59.5795 735.466C60.108 735.466 60.5852 735.392 61.0114 735.244C61.4432 735.091 61.8153 734.864 62.1278 734.562C62.4403 734.256 62.6818 733.875 62.8523 733.42L64.7955 733.966C64.5909 734.625 64.2472 735.205 63.7642 735.705C63.2813 736.199 62.6847 736.585 61.9744 736.864C61.2642 737.136 60.4659 737.273 59.5795 737.273ZM73.7528 723.909V725.614H66.9688V723.909H73.7528ZM68.946 720.773H70.9574V733.25C70.9574 733.818 71.0398 734.244 71.2045 734.528C71.375 734.807 71.5909 734.994 71.8523 735.091C72.1193 735.182 72.4006 735.227 72.696 735.227C72.9176 735.227 73.0994 735.216 73.2415 735.193C73.3835 735.165 73.4972 735.142 73.5824 735.125L73.9915 736.932C73.8551 736.983 73.6648 737.034 73.4205 737.085C73.1761 737.142 72.8665 737.17 72.4915 737.17C71.9233 737.17 71.3665 737.048 70.821 736.804C70.2813 736.56 69.8324 736.188 69.4744 735.688C69.1222 735.188 68.946 734.557 68.946 733.795V720.773ZM80.6307 737.307C79.8011 737.307 79.0483 737.151 78.3722 736.838C77.696 736.52 77.1591 736.062 76.7614 735.466C76.3636 734.864 76.1648 734.136 76.1648 733.284C76.1648 732.534 76.3125 731.926 76.608 731.46C76.9034 730.989 77.2983 730.619 77.7926 730.352C78.2869 730.085 78.8324 729.886 79.429 729.756C80.0313 729.619 80.6364 729.511 81.2443 729.432C82.0398 729.33 82.6847 729.253 83.179 729.202C83.679 729.145 84.0426 729.051 84.2699 728.92C84.5028 728.79 84.6193 728.562 84.6193 728.239V728.17C84.6193 727.33 84.3892 726.676 83.929 726.21C83.4744 725.744 82.7841 725.511 81.858 725.511C80.8977 725.511 80.1449 725.722 79.5994 726.142C79.054 726.562 78.6705 727.011 78.4489 727.489L76.5398 726.807C76.8807 726.011 77.3352 725.392 77.9034 724.949C78.4773 724.5 79.1023 724.187 79.7784 724.011C80.4602 723.83 81.1307 723.739 81.7898 723.739C82.2102 723.739 82.6932 723.79 83.2386 723.892C83.7898 723.989 84.321 724.19 84.8324 724.497C85.3494 724.804 85.7784 725.267 86.1193 725.886C86.4602 726.506 86.6307 727.335 86.6307 728.375V737H84.6193V735.227H84.517C84.3807 735.511 84.1534 735.815 83.8352 736.139C83.517 736.463 83.0938 736.739 82.5653 736.966C82.0369 737.193 81.392 737.307 80.6307 737.307ZM80.9375 735.5C81.733 735.5 82.4034 735.344 82.9489 735.031C83.5 734.719 83.9148 734.315 84.1932 733.821C84.4773 733.327 84.6193 732.807 84.6193 732.261V730.42C84.5341 730.523 84.3466 730.616 84.0568 730.702C83.7727 730.781 83.4432 730.852 83.0682 730.915C82.6989 730.972 82.3381 731.023 81.9858 731.068C81.6392 731.108 81.358 731.142 81.142 731.17C80.6193 731.239 80.1307 731.349 79.6761 731.503C79.2273 731.651 78.8636 731.875 78.5852 732.176C78.3125 732.472 78.1761 732.875 78.1761 733.386C78.1761 734.085 78.4347 734.614 78.9517 734.972C79.4744 735.324 80.1364 735.5 80.9375 735.5ZM90.3018 737V723.909H92.3132V737H90.3018ZM91.3246 721.727C90.9325 721.727 90.5945 721.594 90.3104 721.327C90.032 721.06 89.8928 720.739 89.8928 720.364C89.8928 719.989 90.032 719.668 90.3104 719.401C90.5945 719.134 90.9325 719 91.3246 719C91.7166 719 92.0518 719.134 92.3303 719.401C92.6143 719.668 92.7564 719.989 92.7564 720.364C92.7564 720.739 92.6143 721.06 92.3303 721.327C92.0518 721.594 91.7166 721.727 91.3246 721.727ZM98.0085 719.545V737H95.9972V719.545H98.0085ZM110.965 726.841L109.158 727.352C109.045 727.051 108.877 726.759 108.656 726.474C108.44 726.185 108.144 725.946 107.769 725.759C107.394 725.571 106.914 725.477 106.329 725.477C105.528 725.477 104.86 725.662 104.326 726.031C103.798 726.395 103.533 726.858 103.533 727.42C103.533 727.92 103.715 728.315 104.079 728.605C104.442 728.895 105.011 729.136 105.783 729.33L107.727 729.807C108.897 730.091 109.769 730.526 110.343 731.111C110.917 731.69 111.204 732.437 111.204 733.352C111.204 734.102 110.988 734.773 110.556 735.364C110.13 735.955 109.533 736.42 108.766 736.761C107.999 737.102 107.107 737.273 106.09 737.273C104.755 737.273 103.65 736.983 102.775 736.403C101.9 735.824 101.346 734.977 101.113 733.864L103.022 733.386C103.204 734.091 103.548 734.619 104.053 734.972C104.565 735.324 105.232 735.5 106.056 735.5C106.994 735.5 107.738 735.301 108.289 734.903C108.846 734.5 109.124 734.017 109.124 733.455C109.124 733 108.965 732.619 108.647 732.312C108.329 732 107.84 731.767 107.181 731.614L104.999 731.102C103.8 730.818 102.92 730.378 102.357 729.781C101.8 729.179 101.522 728.426 101.522 727.523C101.522 726.784 101.729 726.131 102.144 725.562C102.565 724.994 103.136 724.548 103.857 724.224C104.585 723.901 105.408 723.739 106.329 723.739C107.624 723.739 108.641 724.023 109.38 724.591C110.124 725.159 110.653 725.909 110.965 726.841Z" fill="#767676"/>
<path d="M400.159 660H398.045C397.92 659.392 397.702 658.858 397.389 658.398C397.082 657.938 396.707 657.551 396.264 657.239C395.827 656.92 395.341 656.682 394.807 656.523C394.273 656.364 393.716 656.284 393.136 656.284C392.08 656.284 391.122 656.551 390.264 657.085C389.412 657.619 388.733 658.406 388.227 659.446C387.727 660.486 387.477 661.761 387.477 663.273C387.477 664.784 387.727 666.06 388.227 667.099C388.733 668.139 389.412 668.926 390.264 669.46C391.122 669.994 392.08 670.261 393.136 670.261C393.716 670.261 394.273 670.182 394.807 670.023C395.341 669.864 395.827 669.628 396.264 669.315C396.707 668.997 397.082 668.608 397.389 668.148C397.702 667.682 397.92 667.148 398.045 666.545H400.159C400 667.437 399.71 668.236 399.29 668.94C398.869 669.645 398.347 670.244 397.722 670.739C397.097 671.227 396.395 671.599 395.616 671.855C394.844 672.111 394.017 672.239 393.136 672.239C391.648 672.239 390.324 671.875 389.165 671.148C388.006 670.42 387.094 669.386 386.429 668.045C385.764 666.705 385.432 665.114 385.432 663.273C385.432 661.432 385.764 659.841 386.429 658.5C387.094 657.159 388.006 656.125 389.165 655.398C390.324 654.67 391.648 654.307 393.136 654.307C394.017 654.307 394.844 654.435 395.616 654.69C396.395 654.946 397.097 655.321 397.722 655.815C398.347 656.304 398.869 656.901 399.29 657.605C399.71 658.304 400 659.102 400.159 660ZM405.313 654.545V672H403.302V654.545H405.313ZM412.849 672.307C412.02 672.307 411.267 672.151 410.591 671.838C409.915 671.52 409.378 671.062 408.98 670.466C408.582 669.864 408.384 669.136 408.384 668.284C408.384 667.534 408.531 666.926 408.827 666.46C409.122 665.989 409.517 665.619 410.011 665.352C410.506 665.085 411.051 664.886 411.648 664.756C412.25 664.619 412.855 664.511 413.463 664.432C414.259 664.33 414.903 664.253 415.398 664.202C415.898 664.145 416.261 664.051 416.489 663.92C416.722 663.79 416.838 663.562 416.838 663.239V663.17C416.838 662.33 416.608 661.676 416.148 661.21C415.693 660.744 415.003 660.511 414.077 660.511C413.116 660.511 412.364 660.722 411.818 661.142C411.273 661.562 410.889 662.011 410.668 662.489L408.759 661.807C409.099 661.011 409.554 660.392 410.122 659.949C410.696 659.5 411.321 659.187 411.997 659.011C412.679 658.83 413.349 658.739 414.009 658.739C414.429 658.739 414.912 658.79 415.457 658.892C416.009 658.989 416.54 659.19 417.051 659.497C417.568 659.804 417.997 660.267 418.338 660.886C418.679 661.506 418.849 662.335 418.849 663.375V672H416.838V670.227H416.736C416.599 670.511 416.372 670.815 416.054 671.139C415.736 671.463 415.313 671.739 414.784 671.966C414.256 672.193 413.611 672.307 412.849 672.307ZM413.156 670.5C413.952 670.5 414.622 670.344 415.168 670.031C415.719 669.719 416.134 669.315 416.412 668.821C416.696 668.327 416.838 667.807 416.838 667.261V665.42C416.753 665.523 416.565 665.616 416.276 665.702C415.991 665.781 415.662 665.852 415.287 665.915C414.918 665.972 414.557 666.023 414.205 666.068C413.858 666.108 413.577 666.142 413.361 666.17C412.838 666.239 412.349 666.349 411.895 666.503C411.446 666.651 411.082 666.875 410.804 667.176C410.531 667.472 410.395 667.875 410.395 668.386C410.395 669.085 410.653 669.614 411.17 669.972C411.693 670.324 412.355 670.5 413.156 670.5ZM431.793 661.841L429.987 662.352C429.873 662.051 429.705 661.759 429.484 661.474C429.268 661.185 428.972 660.946 428.597 660.759C428.222 660.571 427.742 660.477 427.157 660.477C426.356 660.477 425.688 660.662 425.154 661.031C424.626 661.395 424.362 661.858 424.362 662.42C424.362 662.92 424.543 663.315 424.907 663.605C425.271 663.895 425.839 664.136 426.612 664.33L428.555 664.807C429.725 665.091 430.597 665.526 431.171 666.111C431.745 666.69 432.032 667.437 432.032 668.352C432.032 669.102 431.816 669.773 431.384 670.364C430.958 670.955 430.362 671.42 429.594 671.761C428.827 672.102 427.935 672.273 426.918 672.273C425.583 672.273 424.478 671.983 423.603 671.403C422.728 670.824 422.174 669.977 421.941 668.864L423.85 668.386C424.032 669.091 424.376 669.619 424.881 669.972C425.393 670.324 426.06 670.5 426.884 670.5C427.822 670.5 428.566 670.301 429.117 669.903C429.674 669.5 429.952 669.017 429.952 668.455C429.952 668 429.793 667.619 429.475 667.312C429.157 667 428.668 666.767 428.009 666.614L425.827 666.102C424.629 665.818 423.748 665.378 423.185 664.781C422.629 664.179 422.35 663.426 422.35 662.523C422.35 661.784 422.558 661.131 422.972 660.562C423.393 659.994 423.964 659.548 424.685 659.224C425.413 658.901 426.237 658.739 427.157 658.739C428.452 658.739 429.469 659.023 430.208 659.591C430.952 660.159 431.481 660.909 431.793 661.841ZM444.332 661.841L442.526 662.352C442.412 662.051 442.244 661.759 442.023 661.474C441.807 661.185 441.511 660.946 441.136 660.759C440.761 660.571 440.281 660.477 439.696 660.477C438.895 660.477 438.227 660.662 437.693 661.031C437.165 661.395 436.901 661.858 436.901 662.42C436.901 662.92 437.082 663.315 437.446 663.605C437.81 663.895 438.378 664.136 439.151 664.33L441.094 664.807C442.264 665.091 443.136 665.526 443.71 666.111C444.284 666.69 444.571 667.437 444.571 668.352C444.571 669.102 444.355 669.773 443.923 670.364C443.497 670.955 442.901 671.42 442.134 671.761C441.366 672.102 440.474 672.273 439.457 672.273C438.122 672.273 437.017 671.983 436.142 671.403C435.267 670.824 434.713 669.977 434.48 668.864L436.389 668.386C436.571 669.091 436.915 669.619 437.42 669.972C437.932 670.324 438.599 670.5 439.423 670.5C440.361 670.5 441.105 670.301 441.656 669.903C442.213 669.5 442.491 669.017 442.491 668.455C442.491 668 442.332 667.619 442.014 667.312C441.696 667 441.207 666.767 440.548 666.614L438.366 666.102C437.168 665.818 436.287 665.378 435.724 664.781C435.168 664.179 434.889 663.426 434.889 662.523C434.889 661.784 435.097 661.131 435.511 660.562C435.932 659.994 436.503 659.548 437.224 659.224C437.952 658.901 438.776 658.739 439.696 658.739C440.991 658.739 442.009 659.023 442.747 659.591C443.491 660.159 444.02 660.909 444.332 661.841ZM447.599 672V658.909H449.61V672H447.599ZM448.621 656.727C448.229 656.727 447.891 656.594 447.607 656.327C447.329 656.06 447.19 655.739 447.19 655.364C447.19 654.989 447.329 654.668 447.607 654.401C447.891 654.134 448.229 654 448.621 654C449.013 654 449.349 654.134 449.627 654.401C449.911 654.668 450.053 654.989 450.053 655.364C450.053 655.739 449.911 656.06 449.627 656.327C449.349 656.594 449.013 656.727 448.621 656.727ZM459.124 658.909V660.614H452.067V658.909H459.124ZM454.18 672V657.102C454.18 656.352 454.357 655.727 454.709 655.227C455.061 654.727 455.518 654.352 456.081 654.102C456.643 653.852 457.237 653.727 457.862 653.727C458.357 653.727 458.76 653.767 459.072 653.847C459.385 653.926 459.618 654 459.771 654.068L459.192 655.807C459.089 655.773 458.947 655.73 458.766 655.679C458.589 655.628 458.357 655.602 458.067 655.602C457.402 655.602 456.922 655.77 456.626 656.105C456.337 656.44 456.192 656.932 456.192 657.58V672H454.18ZM461.942 672V658.909H463.954V672H461.942ZM462.965 656.727C462.573 656.727 462.235 656.594 461.951 656.327C461.673 656.06 461.533 655.739 461.533 655.364C461.533 654.989 461.673 654.668 461.951 654.401C462.235 654.134 462.573 654 462.965 654C463.357 654 463.692 654.134 463.971 654.401C464.255 654.668 464.397 654.989 464.397 655.364C464.397 655.739 464.255 656.06 463.971 656.327C463.692 656.594 463.357 656.727 462.965 656.727ZM472.956 672.273C471.729 672.273 470.672 671.983 469.786 671.403C468.899 670.824 468.217 670.026 467.74 669.009C467.263 667.991 467.024 666.83 467.024 665.523C467.024 664.193 467.268 663.02 467.757 662.003C468.251 660.98 468.939 660.182 469.82 659.608C470.706 659.028 471.74 658.739 472.922 658.739C473.842 658.739 474.672 658.909 475.411 659.25C476.149 659.591 476.754 660.068 477.226 660.682C477.697 661.295 477.99 662.011 478.104 662.83H476.092C475.939 662.233 475.598 661.705 475.07 661.244C474.547 660.778 473.842 660.545 472.956 660.545C472.172 660.545 471.484 660.75 470.893 661.159C470.308 661.562 469.851 662.134 469.521 662.872C469.197 663.605 469.036 664.466 469.036 665.455C469.036 666.466 469.195 667.347 469.513 668.097C469.837 668.847 470.291 669.429 470.876 669.844C471.467 670.259 472.161 670.466 472.956 670.466C473.479 670.466 473.953 670.375 474.379 670.193C474.805 670.011 475.166 669.75 475.462 669.409C475.757 669.068 475.967 668.659 476.092 668.182H478.104C477.99 668.955 477.709 669.651 477.26 670.27C476.817 670.884 476.229 671.372 475.496 671.736C474.768 672.094 473.922 672.273 472.956 672.273ZM484.896 672.307C484.067 672.307 483.314 672.151 482.638 671.838C481.962 671.52 481.425 671.062 481.027 670.466C480.629 669.864 480.43 669.136 480.43 668.284C480.43 667.534 480.578 666.926 480.874 666.46C481.169 665.989 481.564 665.619 482.058 665.352C482.553 665.085 483.098 664.886 483.695 664.756C484.297 664.619 484.902 664.511 485.51 664.432C486.305 664.33 486.95 664.253 487.445 664.202C487.945 664.145 488.308 664.051 488.536 663.92C488.768 663.79 488.885 663.562 488.885 663.239V663.17C488.885 662.33 488.655 661.676 488.195 661.21C487.74 660.744 487.05 660.511 486.124 660.511C485.163 660.511 484.411 660.722 483.865 661.142C483.32 661.562 482.936 662.011 482.714 662.489L480.805 661.807C481.146 661.011 481.601 660.392 482.169 659.949C482.743 659.5 483.368 659.187 484.044 659.011C484.726 658.83 485.396 658.739 486.055 658.739C486.476 658.739 486.959 658.79 487.504 658.892C488.055 658.989 488.587 659.19 489.098 659.497C489.615 659.804 490.044 660.267 490.385 660.886C490.726 661.506 490.896 662.335 490.896 663.375V672H488.885V670.227H488.783C488.646 670.511 488.419 670.815 488.101 671.139C487.783 671.463 487.359 671.739 486.831 671.966C486.303 672.193 485.658 672.307 484.896 672.307ZM485.203 670.5C485.999 670.5 486.669 670.344 487.214 670.031C487.766 669.719 488.18 669.315 488.459 668.821C488.743 668.327 488.885 667.807 488.885 667.261V665.42C488.8 665.523 488.612 665.616 488.322 665.702C488.038 665.781 487.709 665.852 487.334 665.915C486.964 665.972 486.604 666.023 486.251 666.068C485.905 666.108 485.624 666.142 485.408 666.17C484.885 666.239 484.396 666.349 483.942 666.503C483.493 666.651 483.129 666.875 482.851 667.176C482.578 667.472 482.442 667.875 482.442 668.386C482.442 669.085 482.7 669.614 483.217 669.972C483.74 670.324 484.402 670.5 485.203 670.5ZM500.261 658.909V660.614H493.477V658.909H500.261ZM495.454 655.773H497.465V668.25C497.465 668.818 497.548 669.244 497.712 669.528C497.883 669.807 498.099 669.994 498.36 670.091C498.627 670.182 498.908 670.227 499.204 670.227C499.425 670.227 499.607 670.216 499.749 670.193C499.891 670.165 500.005 670.142 500.09 670.125L500.499 671.932C500.363 671.983 500.173 672.034 499.928 672.085C499.684 672.142 499.374 672.17 498.999 672.17C498.431 672.17 497.874 672.048 497.329 671.804C496.789 671.56 496.34 671.188 495.982 670.688C495.63 670.188 495.454 669.557 495.454 668.795V655.773ZM503.286 672V658.909H505.298V672H503.286ZM504.309 656.727C503.917 656.727 503.579 656.594 503.295 656.327C503.016 656.06 502.877 655.739 502.877 655.364C502.877 654.989 503.016 654.668 503.295 654.401C503.579 654.134 503.917 654 504.309 654C504.701 654 505.036 654.134 505.315 654.401C505.599 654.668 505.741 654.989 505.741 655.364C505.741 655.739 505.599 656.06 505.315 656.327C505.036 656.594 504.701 656.727 504.309 656.727ZM514.3 672.273C513.118 672.273 512.081 671.991 511.189 671.429C510.303 670.866 509.609 670.08 509.109 669.068C508.615 668.057 508.368 666.875 508.368 665.523C508.368 664.159 508.615 662.969 509.109 661.952C509.609 660.935 510.303 660.145 511.189 659.582C512.081 659.02 513.118 658.739 514.3 658.739C515.482 658.739 516.516 659.02 517.402 659.582C518.294 660.145 518.987 660.935 519.482 661.952C519.982 662.969 520.232 664.159 520.232 665.523C520.232 666.875 519.982 668.057 519.482 669.068C518.987 670.08 518.294 670.866 517.402 671.429C516.516 671.991 515.482 672.273 514.3 672.273ZM514.3 670.466C515.197 670.466 515.936 670.236 516.516 669.776C517.095 669.315 517.524 668.71 517.803 667.96C518.081 667.21 518.22 666.398 518.22 665.523C518.22 664.648 518.081 663.832 517.803 663.077C517.524 662.321 517.095 661.71 516.516 661.244C515.936 660.778 515.197 660.545 514.3 660.545C513.402 660.545 512.663 660.778 512.084 661.244C511.504 661.71 511.075 662.321 510.797 663.077C510.518 663.832 510.379 664.648 510.379 665.523C510.379 666.398 510.518 667.21 510.797 667.96C511.075 668.71 511.504 669.315 512.084 669.776C512.663 670.236 513.402 670.466 514.3 670.466ZM525.313 664.125V672H523.302V658.909H525.245V660.955H525.415C525.722 660.29 526.188 659.756 526.813 659.352C527.438 658.943 528.245 658.739 529.234 658.739C530.12 658.739 530.896 658.92 531.56 659.284C532.225 659.642 532.742 660.188 533.112 660.92C533.481 661.648 533.665 662.568 533.665 663.682V672H531.654V663.818C531.654 662.79 531.387 661.989 530.853 661.415C530.319 660.835 529.586 660.545 528.654 660.545C528.012 660.545 527.438 660.685 526.933 660.963C526.433 661.241 526.038 661.648 525.748 662.182C525.458 662.716 525.313 663.364 525.313 664.125Z" fill="#767676"/>
<path d="M386.114 737V719.545H388.227V735.125H396.341V737H386.114ZM399.341 737V723.909H401.352V737H399.341ZM400.364 721.727C399.972 721.727 399.634 721.594 399.349 721.327C399.071 721.06 398.932 720.739 398.932 720.364C398.932 719.989 399.071 719.668 399.349 719.401C399.634 719.134 399.972 719 400.364 719C400.756 719 401.091 719.134 401.369 719.401C401.653 719.668 401.795 719.989 401.795 720.364C401.795 720.739 401.653 721.06 401.369 721.327C401.091 721.594 400.756 721.727 400.364 721.727ZM407.048 729.125V737H405.036V723.909H406.979V725.955H407.15C407.457 725.29 407.923 724.756 408.548 724.352C409.173 723.943 409.979 723.739 410.968 723.739C411.854 723.739 412.63 723.92 413.295 724.284C413.96 724.642 414.477 725.188 414.846 725.92C415.215 726.648 415.4 727.568 415.4 728.682V737H413.388V728.818C413.388 727.79 413.121 726.989 412.587 726.415C412.053 725.835 411.32 725.545 410.388 725.545C409.746 725.545 409.173 725.685 408.667 725.963C408.167 726.241 407.772 726.648 407.482 727.182C407.192 727.716 407.048 728.364 407.048 729.125ZM420.95 732.227L420.916 729.739H421.325L427.053 723.909H429.541L423.439 730.08H423.268L420.95 732.227ZM419.075 737V719.545H421.087V737H419.075ZM427.393 737L422.28 730.523L423.712 729.125L429.95 737H427.393ZM441.403 726.841L439.596 727.352C439.482 727.051 439.315 726.759 439.093 726.474C438.877 726.185 438.582 725.946 438.207 725.759C437.832 725.571 437.352 725.477 436.766 725.477C435.965 725.477 435.298 725.662 434.763 726.031C434.235 726.395 433.971 726.858 433.971 727.42C433.971 727.92 434.153 728.315 434.516 728.605C434.88 728.895 435.448 729.136 436.221 729.33L438.164 729.807C439.335 730.091 440.207 730.526 440.781 731.111C441.354 731.69 441.641 732.437 441.641 733.352C441.641 734.102 441.425 734.773 440.994 735.364C440.567 735.955 439.971 736.42 439.204 736.761C438.437 737.102 437.545 737.273 436.528 737.273C435.192 737.273 434.087 736.983 433.212 736.403C432.337 735.824 431.783 734.977 431.55 733.864L433.46 733.386C433.641 734.091 433.985 734.619 434.491 734.972C435.002 735.324 435.67 735.5 436.494 735.5C437.431 735.5 438.175 735.301 438.727 734.903C439.283 734.5 439.562 734.017 439.562 733.455C439.562 733 439.403 732.619 439.085 732.312C438.766 732 438.278 731.767 437.619 731.614L435.437 731.102C434.238 730.818 433.357 730.378 432.795 729.781C432.238 729.179 431.96 728.426 431.96 727.523C431.96 726.784 432.167 726.131 432.582 725.562C433.002 724.994 433.573 724.548 434.295 724.224C435.022 723.901 435.846 723.739 436.766 723.739C438.062 723.739 439.079 724.023 439.817 724.591C440.562 725.159 441.09 725.909 441.403 726.841Z" fill="#767676"/>
<path d="M41.6591 795.909C41.5568 795.045 41.142 794.375 40.4148 793.898C39.6875 793.42 38.7955 793.182 37.7386 793.182C36.9659 793.182 36.2898 793.307 35.7102 793.557C35.1364 793.807 34.6875 794.151 34.3636 794.588C34.0455 795.026 33.8864 795.523 33.8864 796.08C33.8864 796.545 33.9972 796.946 34.2188 797.281C34.446 797.611 34.7358 797.886 35.0881 798.108C35.4403 798.324 35.8097 798.503 36.196 798.645C36.5824 798.781 36.9375 798.892 37.2614 798.977L39.0341 799.455C39.4886 799.574 39.9943 799.739 40.5511 799.949C41.1136 800.159 41.6506 800.446 42.1619 800.81C42.679 801.168 43.1051 801.628 43.4403 802.19C43.7756 802.753 43.9432 803.443 43.9432 804.261C43.9432 805.205 43.696 806.057 43.2017 806.818C42.7131 807.58 41.9972 808.185 41.054 808.634C40.1165 809.082 38.9773 809.307 37.6364 809.307C36.3864 809.307 35.304 809.105 34.3892 808.702C33.4801 808.298 32.7642 807.736 32.2415 807.014C31.7244 806.293 31.4318 805.455 31.3636 804.5H33.5455C33.6023 805.159 33.8239 805.705 34.2102 806.136C34.6023 806.562 35.0966 806.881 35.6932 807.091C36.2955 807.295 36.9432 807.398 37.6364 807.398C38.4432 807.398 39.1676 807.267 39.8097 807.006C40.4517 806.739 40.9602 806.369 41.3352 805.898C41.7102 805.42 41.8977 804.864 41.8977 804.227C41.8977 803.648 41.7358 803.176 41.4119 802.812C41.0881 802.449 40.6619 802.153 40.1335 801.926C39.6051 801.699 39.0341 801.5 38.4205 801.33L36.2727 800.716C34.9091 800.324 33.8295 799.764 33.0341 799.037C32.2386 798.31 31.8409 797.358 31.8409 796.182C31.8409 795.205 32.1051 794.352 32.6335 793.625C33.1676 792.892 33.8835 792.324 34.7812 791.92C35.6847 791.511 36.6932 791.307 37.8068 791.307C38.9318 791.307 39.9318 791.509 40.8068 791.912C41.6818 792.31 42.375 792.855 42.8864 793.548C43.4034 794.241 43.6761 795.028 43.7045 795.909H41.6591ZM49.157 801.125V809H47.1456V795.909H49.0888V797.955H49.2592C49.5661 797.29 50.032 796.756 50.657 796.352C51.282 795.943 52.0888 795.739 53.0774 795.739C53.9638 795.739 54.7393 795.92 55.4041 796.284C56.0689 796.642 56.5859 797.188 56.9553 797.92C57.3246 798.648 57.5092 799.568 57.5092 800.682V809H55.4979V800.818C55.4979 799.79 55.2308 798.989 54.6967 798.415C54.1626 797.835 53.4297 797.545 52.4979 797.545C51.8558 797.545 51.282 797.685 50.7763 797.963C50.2763 798.241 49.8814 798.648 49.5916 799.182C49.3018 799.716 49.157 800.364 49.157 801.125ZM65.0369 809.307C64.2074 809.307 63.4545 809.151 62.7784 808.838C62.1023 808.52 61.5653 808.062 61.1676 807.466C60.7699 806.864 60.571 806.136 60.571 805.284C60.571 804.534 60.7188 803.926 61.0142 803.46C61.3097 802.989 61.7045 802.619 62.1989 802.352C62.6932 802.085 63.2386 801.886 63.8352 801.756C64.4375 801.619 65.0426 801.511 65.6506 801.432C66.446 801.33 67.0909 801.253 67.5852 801.202C68.0852 801.145 68.4489 801.051 68.6761 800.92C68.9091 800.79 69.0256 800.562 69.0256 800.239V800.17C69.0256 799.33 68.7955 798.676 68.3352 798.21C67.8807 797.744 67.1903 797.511 66.2642 797.511C65.304 797.511 64.5511 797.722 64.0057 798.142C63.4602 798.562 63.0767 799.011 62.8551 799.489L60.946 798.807C61.2869 798.011 61.7415 797.392 62.3097 796.949C62.8835 796.5 63.5085 796.187 64.1847 796.011C64.8665 795.83 65.5369 795.739 66.196 795.739C66.6165 795.739 67.0994 795.79 67.6449 795.892C68.196 795.989 68.7273 796.19 69.2386 796.497C69.7557 796.804 70.1847 797.267 70.5256 797.886C70.8665 798.506 71.0369 799.335 71.0369 800.375V809H69.0256V807.227H68.9233C68.7869 807.511 68.5597 807.815 68.2415 808.139C67.9233 808.463 67.5 808.739 66.9716 808.966C66.4432 809.193 65.7983 809.307 65.0369 809.307ZM65.3438 807.5C66.1392 807.5 66.8097 807.344 67.3551 807.031C67.9063 806.719 68.321 806.315 68.5994 805.821C68.8835 805.327 69.0256 804.807 69.0256 804.261V802.42C68.9403 802.523 68.7528 802.616 68.4631 802.702C68.179 802.781 67.8494 802.852 67.4744 802.915C67.1051 802.972 66.7443 803.023 66.392 803.068C66.0455 803.108 65.7642 803.142 65.5483 803.17C65.0256 803.239 64.5369 803.349 64.0824 803.503C63.6335 803.651 63.2699 803.875 62.9915 804.176C62.7188 804.472 62.5824 804.875 62.5824 805.386C62.5824 806.085 62.8409 806.614 63.358 806.972C63.8807 807.324 64.5426 807.5 65.3438 807.5ZM74.7081 813.909V795.909H76.6513V797.989H76.8899C77.0376 797.761 77.2422 797.472 77.5036 797.119C77.7706 796.761 78.1513 796.443 78.6456 796.165C79.1456 795.881 79.8217 795.739 80.674 795.739C81.7763 795.739 82.7479 796.014 83.5888 796.565C84.4297 797.116 85.0859 797.898 85.5575 798.909C86.0291 799.92 86.2649 801.114 86.2649 802.489C86.2649 803.875 86.0291 805.077 85.5575 806.094C85.0859 807.105 84.4325 807.889 83.5973 808.446C82.7621 808.997 81.799 809.273 80.7081 809.273C79.8672 809.273 79.1939 809.134 78.6882 808.855C78.1825 808.571 77.7933 808.25 77.5206 807.892C77.2479 807.528 77.0376 807.227 76.8899 806.989H76.7195V813.909H74.7081ZM76.6854 802.455C76.6854 803.443 76.8303 804.315 77.12 805.071C77.4098 805.821 77.8331 806.409 78.3899 806.835C78.9467 807.256 79.6286 807.466 80.4354 807.466C81.2763 807.466 81.978 807.244 82.5405 806.801C83.1087 806.352 83.5348 805.75 83.8189 804.994C84.1087 804.233 84.2536 803.386 84.2536 802.455C84.2536 801.534 84.1115 800.705 83.8274 799.966C83.549 799.222 83.1257 798.634 82.5575 798.202C81.995 797.764 81.2876 797.545 80.4354 797.545C79.6172 797.545 78.9297 797.753 78.3729 798.168C77.8161 798.577 77.3956 799.151 77.1115 799.889C76.8274 800.622 76.6854 801.477 76.6854 802.455ZM98.6058 798.841L96.799 799.352C96.6854 799.051 96.5178 798.759 96.2962 798.474C96.0803 798.185 95.7848 797.946 95.4098 797.759C95.0348 797.571 94.5547 797.477 93.9695 797.477C93.1683 797.477 92.5007 797.662 91.9666 798.031C91.4382 798.395 91.174 798.858 91.174 799.42C91.174 799.92 91.3558 800.315 91.7195 800.605C92.0831 800.895 92.6513 801.136 93.424 801.33L95.3672 801.807C96.5376 802.091 97.4098 802.526 97.9837 803.111C98.5575 803.69 98.8445 804.437 98.8445 805.352C98.8445 806.102 98.6286 806.773 98.1967 807.364C97.7706 807.955 97.174 808.42 96.407 808.761C95.6399 809.102 94.7479 809.273 93.7308 809.273C92.3956 809.273 91.2905 808.983 90.4155 808.403C89.5405 807.824 88.9865 806.977 88.7536 805.864L90.6626 805.386C90.8445 806.091 91.1882 806.619 91.6939 806.972C92.2053 807.324 92.8729 807.5 93.6967 807.5C94.6342 807.5 95.3786 807.301 95.9297 806.903C96.4865 806.5 96.7649 806.017 96.7649 805.455C96.7649 805 96.6058 804.619 96.2876 804.312C95.9695 804 95.4808 803.767 94.8217 803.614L92.6399 803.102C91.4411 802.818 90.5604 802.378 89.9979 801.781C89.4411 801.179 89.1626 800.426 89.1626 799.523C89.1626 798.784 89.37 798.131 89.7848 797.562C90.2053 796.994 90.7763 796.548 91.4979 796.224C92.2251 795.901 93.049 795.739 93.9695 795.739C95.2649 795.739 96.282 796.023 97.0206 796.591C97.7649 797.159 98.2933 797.909 98.6058 798.841ZM103.884 801.125V809H101.872V791.545H103.884V797.955H104.054C104.361 797.278 104.821 796.741 105.435 796.344C106.054 795.94 106.878 795.739 107.906 795.739C108.798 795.739 109.58 795.918 110.25 796.276C110.92 796.628 111.44 797.17 111.81 797.903C112.185 798.631 112.372 799.557 112.372 800.682V809H110.361V800.818C110.361 799.778 110.091 798.974 109.551 798.406C109.017 797.832 108.276 797.545 107.327 797.545C106.668 797.545 106.077 797.685 105.554 797.963C105.037 798.241 104.628 798.648 104.327 799.182C104.031 799.716 103.884 800.364 103.884 801.125ZM121.37 809.273C120.188 809.273 119.151 808.991 118.259 808.429C117.373 807.866 116.68 807.08 116.18 806.068C115.685 805.057 115.438 803.875 115.438 802.523C115.438 801.159 115.685 799.969 116.18 798.952C116.68 797.935 117.373 797.145 118.259 796.582C119.151 796.02 120.188 795.739 121.37 795.739C122.552 795.739 123.586 796.02 124.472 796.582C125.364 797.145 126.058 797.935 126.552 798.952C127.052 799.969 127.302 801.159 127.302 802.523C127.302 803.875 127.052 805.057 126.552 806.068C126.058 807.08 125.364 807.866 124.472 808.429C123.586 808.991 122.552 809.273 121.37 809.273ZM121.37 807.466C122.268 807.466 123.006 807.236 123.586 806.776C124.165 806.315 124.594 805.71 124.873 804.96C125.151 804.21 125.29 803.398 125.29 802.523C125.29 801.648 125.151 800.832 124.873 800.077C124.594 799.321 124.165 798.71 123.586 798.244C123.006 797.778 122.268 797.545 121.37 797.545C120.472 797.545 119.734 797.778 119.154 798.244C118.575 798.71 118.146 799.321 117.867 800.077C117.589 800.832 117.45 801.648 117.45 802.523C117.45 803.398 117.589 804.21 117.867 804.96C118.146 805.71 118.575 806.315 119.154 806.776C119.734 807.236 120.472 807.466 121.37 807.466ZM136.065 795.909V797.614H129.281V795.909H136.065ZM131.259 792.773H133.27V805.25C133.27 805.818 133.352 806.244 133.517 806.528C133.688 806.807 133.903 806.994 134.165 807.091C134.432 807.182 134.713 807.227 135.009 807.227C135.23 807.227 135.412 807.216 135.554 807.193C135.696 807.165 135.81 807.142 135.895 807.125L136.304 808.932C136.168 808.983 135.977 809.034 135.733 809.085C135.489 809.142 135.179 809.17 134.804 809.17C134.236 809.17 133.679 809.048 133.134 808.804C132.594 808.56 132.145 808.188 131.787 807.688C131.435 807.188 131.259 806.557 131.259 805.795V792.773ZM148.129 798.841L146.322 799.352C146.209 799.051 146.041 798.759 145.82 798.474C145.604 798.185 145.308 797.946 144.933 797.759C144.558 797.571 144.078 797.477 143.493 797.477C142.692 797.477 142.024 797.662 141.49 798.031C140.962 798.395 140.697 798.858 140.697 799.42C140.697 799.92 140.879 800.315 141.243 800.605C141.607 800.895 142.175 801.136 142.947 801.33L144.891 801.807C146.061 802.091 146.933 802.526 147.507 803.111C148.081 803.69 148.368 804.437 148.368 805.352C148.368 806.102 148.152 806.773 147.72 807.364C147.294 807.955 146.697 808.42 145.93 808.761C145.163 809.102 144.271 809.273 143.254 809.273C141.919 809.273 140.814 808.983 139.939 808.403C139.064 807.824 138.51 806.977 138.277 805.864L140.186 805.386C140.368 806.091 140.712 806.619 141.217 806.972C141.729 807.324 142.396 807.5 143.22 807.5C144.158 807.5 144.902 807.301 145.453 806.903C146.01 806.5 146.288 806.017 146.288 805.455C146.288 805 146.129 804.619 145.811 804.312C145.493 804 145.004 803.767 144.345 803.614L142.163 803.102C140.964 802.818 140.084 802.378 139.521 801.781C138.964 801.179 138.686 800.426 138.686 799.523C138.686 798.784 138.893 798.131 139.308 797.562C139.729 796.994 140.3 796.548 141.021 796.224C141.749 795.901 142.572 795.739 143.493 795.739C144.788 795.739 145.805 796.023 146.544 796.591C147.288 797.159 147.817 797.909 148.129 798.841Z" fill="#767676"/>
<path d="M319.114 874V856.545H329.58V858.42H321.227V864.318H328.795V866.193H321.227V874H319.114ZM337.284 874.273C336.102 874.273 335.065 873.991 334.173 873.429C333.287 872.866 332.594 872.08 332.094 871.068C331.599 870.057 331.352 868.875 331.352 867.523C331.352 866.159 331.599 864.969 332.094 863.952C332.594 862.935 333.287 862.145 334.173 861.582C335.065 861.02 336.102 860.739 337.284 860.739C338.466 860.739 339.5 861.02 340.386 861.582C341.278 862.145 341.972 862.935 342.466 863.952C342.966 864.969 343.216 866.159 343.216 867.523C343.216 868.875 342.966 870.057 342.466 871.068C341.972 872.08 341.278 872.866 340.386 873.429C339.5 873.991 338.466 874.273 337.284 874.273ZM337.284 872.466C338.182 872.466 338.92 872.236 339.5 871.776C340.08 871.315 340.509 870.71 340.787 869.96C341.065 869.21 341.205 868.398 341.205 867.523C341.205 866.648 341.065 865.832 340.787 865.077C340.509 864.321 340.08 863.71 339.5 863.244C338.92 862.778 338.182 862.545 337.284 862.545C336.386 862.545 335.648 862.778 335.068 863.244C334.489 863.71 334.06 864.321 333.781 865.077C333.503 865.832 333.364 866.648 333.364 867.523C333.364 868.398 333.503 869.21 333.781 869.96C334.06 870.71 334.489 871.315 335.068 871.776C335.648 872.236 336.386 872.466 337.284 872.466ZM351.604 874.273C350.423 874.273 349.386 873.991 348.494 873.429C347.607 872.866 346.914 872.08 346.414 871.068C345.92 870.057 345.673 868.875 345.673 867.523C345.673 866.159 345.92 864.969 346.414 863.952C346.914 862.935 347.607 862.145 348.494 861.582C349.386 861.02 350.423 860.739 351.604 860.739C352.786 860.739 353.82 861.02 354.707 861.582C355.599 862.145 356.292 862.935 356.786 863.952C357.286 864.969 357.536 866.159 357.536 867.523C357.536 868.875 357.286 870.057 356.786 871.068C356.292 872.08 355.599 872.866 354.707 873.429C353.82 873.991 352.786 874.273 351.604 874.273ZM351.604 872.466C352.502 872.466 353.241 872.236 353.82 871.776C354.4 871.315 354.829 870.71 355.107 869.96C355.386 869.21 355.525 868.398 355.525 867.523C355.525 866.648 355.386 865.832 355.107 865.077C354.829 864.321 354.4 863.71 353.82 863.244C353.241 862.778 352.502 862.545 351.604 862.545C350.707 862.545 349.968 862.778 349.388 863.244C348.809 863.71 348.38 864.321 348.102 865.077C347.823 865.832 347.684 866.648 347.684 867.523C347.684 868.398 347.823 869.21 348.102 869.96C348.38 870.71 348.809 871.315 349.388 871.776C349.968 872.236 350.707 872.466 351.604 872.466ZM366.3 860.909V862.614H359.516V860.909H366.3ZM361.493 857.773H363.504V870.25C363.504 870.818 363.587 871.244 363.751 871.528C363.922 871.807 364.138 871.994 364.399 872.091C364.666 872.182 364.947 872.227 365.243 872.227C365.464 872.227 365.646 872.216 365.788 872.193C365.93 872.165 366.044 872.142 366.129 872.125L366.538 873.932C366.402 873.983 366.212 874.034 365.967 874.085C365.723 874.142 365.413 874.17 365.038 874.17C364.47 874.17 363.913 874.048 363.368 873.804C362.828 873.56 362.379 873.188 362.021 872.688C361.669 872.188 361.493 871.557 361.493 870.795V857.773ZM374.673 874.273C373.412 874.273 372.324 873.994 371.409 873.438C370.5 872.875 369.798 872.091 369.304 871.085C368.815 870.074 368.571 868.898 368.571 867.557C368.571 866.216 368.815 865.034 369.304 864.011C369.798 862.983 370.486 862.182 371.366 861.608C372.253 861.028 373.287 860.739 374.469 860.739C375.151 860.739 375.824 860.852 376.489 861.08C377.153 861.307 377.759 861.676 378.304 862.188C378.849 862.693 379.284 863.364 379.608 864.199C379.932 865.034 380.094 866.062 380.094 867.284V868.136H370.003V866.398H378.048C378.048 865.659 377.901 865 377.605 864.42C377.315 863.841 376.901 863.384 376.361 863.048C375.827 862.713 375.196 862.545 374.469 862.545C373.668 862.545 372.974 862.744 372.389 863.142C371.81 863.534 371.364 864.045 371.051 864.676C370.739 865.307 370.582 865.983 370.582 866.705V867.864C370.582 868.852 370.753 869.69 371.094 870.378C371.44 871.06 371.92 871.58 372.534 871.938C373.148 872.29 373.861 872.466 374.673 872.466C375.202 872.466 375.679 872.392 376.105 872.244C376.537 872.091 376.909 871.864 377.222 871.562C377.534 871.256 377.776 870.875 377.946 870.42L379.889 870.966C379.685 871.625 379.341 872.205 378.858 872.705C378.375 873.199 377.778 873.585 377.068 873.864C376.358 874.136 375.56 874.273 374.673 874.273ZM383.153 874V860.909H385.097V862.886H385.233C385.472 862.239 385.903 861.713 386.528 861.31C387.153 860.906 387.858 860.705 388.642 860.705C388.79 860.705 388.974 860.707 389.196 860.713C389.418 860.719 389.585 860.727 389.699 860.739V862.784C389.631 862.767 389.474 862.741 389.23 862.707C388.991 862.668 388.739 862.648 388.472 862.648C387.835 862.648 387.267 862.781 386.767 863.048C386.273 863.31 385.881 863.673 385.591 864.139C385.307 864.599 385.165 865.125 385.165 865.716V874H383.153Z" fill="#767676"/>
<path d="M344.672 597H343.379L347.118 586.818H348.391L352.129 597H350.837L347.794 588.429H347.715L344.672 597ZM345.149 593.023H350.36V594.116H345.149V593.023ZM353.556 597V589.364H354.69V590.517H354.769C354.909 590.139 355.16 589.833 355.525 589.597C355.89 589.362 356.301 589.244 356.758 589.244C356.844 589.244 356.952 589.246 357.081 589.249C357.21 589.253 357.308 589.258 357.374 589.264V590.457C357.335 590.447 357.244 590.433 357.101 590.413C356.962 590.389 356.814 590.378 356.659 590.378C356.287 590.378 355.956 590.456 355.664 590.612C355.376 590.764 355.147 590.976 354.978 591.248C354.812 591.516 354.73 591.823 354.73 592.168V597H353.556ZM362.565 589.364V590.358H358.607V589.364H362.565ZM359.761 587.534H360.934V594.812C360.934 595.144 360.982 595.393 361.078 595.558C361.178 595.721 361.304 595.83 361.456 595.886C361.612 595.939 361.776 595.966 361.948 595.966C362.078 595.966 362.184 595.959 362.267 595.946C362.349 595.929 362.416 595.916 362.465 595.906L362.704 596.96C362.624 596.99 362.513 597.02 362.371 597.05C362.228 597.083 362.048 597.099 361.829 597.099C361.498 597.099 361.173 597.028 360.855 596.886C360.54 596.743 360.278 596.526 360.069 596.234C359.864 595.943 359.761 595.575 359.761 595.131V587.534ZM364.33 597V589.364H365.503V597H364.33ZM364.926 588.091C364.698 588.091 364.5 588.013 364.335 587.857C364.172 587.701 364.091 587.514 364.091 587.295C364.091 587.077 364.172 586.889 364.335 586.734C364.5 586.578 364.698 586.5 364.926 586.5C365.155 586.5 365.351 586.578 365.513 586.734C365.679 586.889 365.762 587.077 365.762 587.295C365.762 587.514 365.679 587.701 365.513 587.857C365.351 588.013 365.155 588.091 364.926 588.091ZM373.061 591.074L372.007 591.372C371.941 591.196 371.843 591.026 371.714 590.86C371.588 590.691 371.415 590.552 371.197 590.442C370.978 590.333 370.698 590.278 370.357 590.278C369.889 590.278 369.5 590.386 369.188 590.602C368.88 590.814 368.726 591.084 368.726 591.412C368.726 591.704 368.832 591.934 369.044 592.103C369.256 592.272 369.588 592.413 370.038 592.526L371.172 592.804C371.855 592.97 372.363 593.223 372.698 593.565C373.033 593.903 373.2 594.339 373.2 594.872C373.2 595.31 373.074 595.701 372.822 596.045C372.574 596.39 372.226 596.662 371.778 596.861C371.331 597.06 370.811 597.159 370.217 597.159C369.438 597.159 368.794 596.99 368.283 596.652C367.773 596.314 367.45 595.82 367.314 595.17L368.428 594.892C368.534 595.303 368.734 595.611 369.029 595.817C369.327 596.022 369.717 596.125 370.197 596.125C370.744 596.125 371.179 596.009 371.5 595.777C371.825 595.542 371.987 595.26 371.987 594.932C371.987 594.667 371.894 594.445 371.709 594.266C371.523 594.083 371.238 593.947 370.854 593.858L369.581 593.56C368.882 593.394 368.368 593.137 368.04 592.789C367.715 592.438 367.553 591.999 367.553 591.472C367.553 591.041 367.674 590.66 367.915 590.328C368.161 589.997 368.494 589.737 368.915 589.548C369.339 589.359 369.82 589.264 370.357 589.264C371.112 589.264 371.705 589.43 372.136 589.761C372.571 590.093 372.879 590.53 373.061 591.074ZM378.287 589.364V590.358H374.33V589.364H378.287ZM375.483 587.534H376.657V594.812C376.657 595.144 376.705 595.393 376.801 595.558C376.9 595.721 377.026 595.83 377.179 595.886C377.335 595.939 377.499 595.966 377.671 595.966C377.8 595.966 377.906 595.959 377.989 595.946C378.072 595.929 378.138 595.916 378.188 595.906L378.427 596.96C378.347 596.99 378.236 597.02 378.094 597.05C377.951 597.083 377.77 597.099 377.552 597.099C377.22 597.099 376.895 597.028 376.577 596.886C376.262 596.743 376.001 596.526 375.792 596.234C375.586 595.943 375.483 595.575 375.483 595.131V587.534Z" fill="#767676"/>
<path d="M621.83 50H619.614L626.023 32.5455H628.205L634.614 50H632.398L627.182 35.3068H627.045L621.83 50ZM622.648 43.1818H631.58V45.0568H622.648V43.1818ZM637.332 50V32.5455H639.344V38.9886H639.514C639.662 38.7614 639.866 38.4716 640.128 38.1193C640.395 37.7614 640.776 37.4432 641.27 37.1648C641.77 36.8807 642.446 36.7386 643.298 36.7386C644.401 36.7386 645.372 37.0142 646.213 37.5653C647.054 38.1165 647.71 38.8977 648.182 39.9091C648.653 40.9205 648.889 42.1136 648.889 43.4886C648.889 44.875 648.653 46.0767 648.182 47.0938C647.71 48.1051 647.057 48.8892 646.222 49.446C645.386 49.9972 644.423 50.2727 643.332 50.2727C642.491 50.2727 641.818 50.1335 641.312 49.8551C640.807 49.571 640.418 49.25 640.145 48.892C639.872 48.5284 639.662 48.2273 639.514 47.9886H639.276V50H637.332ZM639.31 43.4545C639.31 44.4432 639.455 45.3153 639.744 46.071C640.034 46.821 640.457 47.4091 641.014 47.8352C641.571 48.2557 642.253 48.4659 643.06 48.4659C643.901 48.4659 644.602 48.2443 645.165 47.8011C645.733 47.3523 646.159 46.75 646.443 45.9943C646.733 45.233 646.878 44.3864 646.878 43.4545C646.878 42.5341 646.736 41.7045 646.452 40.9659C646.173 40.2216 645.75 39.6335 645.182 39.2017C644.619 38.7642 643.912 38.5455 643.06 38.5455C642.241 38.5455 641.554 38.7528 640.997 39.1676C640.44 39.5767 640.02 40.1506 639.736 40.8892C639.452 41.6222 639.31 42.4773 639.31 43.4545ZM657.284 50.2727C656.102 50.2727 655.065 49.9915 654.173 49.429C653.287 48.8665 652.594 48.0795 652.094 47.0682C651.599 46.0568 651.352 44.875 651.352 43.5227C651.352 42.1591 651.599 40.9687 652.094 39.9517C652.594 38.9347 653.287 38.1449 654.173 37.5824C655.065 37.0199 656.102 36.7386 657.284 36.7386C658.466 36.7386 659.5 37.0199 660.386 37.5824C661.278 38.1449 661.972 38.9347 662.466 39.9517C662.966 40.9687 663.216 42.1591 663.216 43.5227C663.216 44.875 662.966 46.0568 662.466 47.0682C661.972 48.0795 661.278 48.8665 660.386 49.429C659.5 49.9915 658.466 50.2727 657.284 50.2727ZM657.284 48.4659C658.182 48.4659 658.92 48.2358 659.5 47.7756C660.08 47.3153 660.509 46.7102 660.787 45.9602C661.065 45.2102 661.205 44.3977 661.205 43.5227C661.205 42.6477 661.065 41.8324 660.787 41.0767C660.509 40.321 660.08 39.7102 659.5 39.2443C658.92 38.7784 658.182 38.5455 657.284 38.5455C656.386 38.5455 655.648 38.7784 655.068 39.2443C654.489 39.7102 654.06 40.321 653.781 41.0767C653.503 41.8324 653.364 42.6477 653.364 43.5227C653.364 44.3977 653.503 45.2102 653.781 45.9602C654.06 46.7102 654.489 47.3153 655.068 47.7756C655.648 48.2358 656.386 48.4659 657.284 48.4659ZM674.536 44.6477V36.9091H676.548V50H674.536V47.7841H674.4C674.093 48.4489 673.616 49.0142 672.968 49.4801C672.32 49.9403 671.502 50.1705 670.513 50.1705C669.695 50.1705 668.968 49.9915 668.332 49.6335C667.695 49.2699 667.195 48.7244 666.832 47.9972C666.468 47.2642 666.286 46.3409 666.286 45.2273V36.9091H668.298V45.0909C668.298 46.0455 668.565 46.8068 669.099 47.375C669.638 47.9432 670.326 48.2273 671.161 48.2273C671.661 48.2273 672.17 48.0994 672.687 47.8438C673.21 47.5881 673.647 47.196 673.999 46.6676C674.357 46.1392 674.536 45.4659 674.536 44.6477ZM685.925 36.9091V38.6136H679.141V36.9091H685.925ZM681.118 33.7727H683.129V46.25C683.129 46.8182 683.212 47.2443 683.376 47.5284C683.547 47.8068 683.763 47.9943 684.024 48.0909C684.291 48.1818 684.572 48.2273 684.868 48.2273C685.089 48.2273 685.271 48.2159 685.413 48.1932C685.555 48.1648 685.669 48.142 685.754 48.125L686.163 49.9318C686.027 49.983 685.837 50.0341 685.592 50.0852C685.348 50.142 685.038 50.1705 684.663 50.1705C684.095 50.1705 683.538 50.0483 682.993 49.804C682.453 49.5597 682.004 49.1875 681.646 48.6875C681.294 48.1875 681.118 47.5568 681.118 46.7955V33.7727Z" fill="#767676"/>
</g>
<defs>
<clipPath id="clip0_1_64">
<rect width="727" height="924" fill="white"/>
</clipPath>
</defs>
</svg>
